<?xml version="1.0" encoding="UTF-8" standalone="no"?>
<!-- Created with Inkscape (http://www.inkscape.org/) -->

<svg
   xmlns:dc="http://purl.org/dc/elements/1.1/"
   xmlns:cc="http://creativecommons.org/ns#"
   xmlns:rdf="http://www.w3.org/1999/02/22-rdf-syntax-ns#"
   xmlns:svg="http://www.w3.org/2000/svg"
   xmlns="http://www.w3.org/2000/svg"
   xmlns:sodipodi="http://sodipodi.sourceforge.net/DTD/sodipodi-0.dtd"
   xmlns:inkscape="http://www.inkscape.org/namespaces/inkscape"
   width="115.09084mm"
   height="80.685501mm"
   viewBox="0 0 115.09084 80.6855"
   version="1.1"
   id="svg7783"
   inkscape:version="0.92.5 (2060ec1f9f, 2020-04-08)"
   sodipodi:docname="isr_flow.svg">
  <defs
     id="defs7777" />
  <sodipodi:namedview
     id="base"
     pagecolor="#ffffff"
     bordercolor="#666666"
     borderopacity="1.0"
     inkscape:pageopacity="0.0"
     inkscape:pageshadow="2"
     inkscape:zoom="0.7"
     inkscape:cx="-27.582348"
     inkscape:cy="66.251056"
     inkscape:document-units="mm"
     inkscape:current-layer="layer1"
     showgrid="false"
     fit-margin-top="0"
     fit-margin-left="0"
     fit-margin-right="0"
     fit-margin-bottom="0"
     inkscape:window-width="1918"
     inkscape:window-height="1057"
     inkscape:window-x="1920"
     inkscape:window-y="0"
     inkscape:window-maximized="0" />
  <metadata
     id="metadata7780">
    <rdf:RDF>
      <cc:Work
         rdf:about="">
        <dc:format>image/svg+xml</dc:format>
        <dc:type
           rdf:resource="http://purl.org/dc/dcmitype/StillImage" />
        <dc:title></dc:title>
      </cc:Work>
    </rdf:RDF>
  </metadata>
  <g
     inkscape:label="Layer 1"
     inkscape:groupmode="layer"
     id="layer1"
     transform="translate(-62.651039,-68.425045)">
    <path
       style="stroke-width:0.01213978"
       inkscape:connector-curvature="0"
       d="m 74.741221,68.62986 c -0.148763,0.487408 -0.334716,3.174095 -0.309922,4.588766 0,0.844048 -0.03719,1.569216 -0.08678,1.616768 -0.06198,0.04756 -0.557861,0.154544 -1.103324,0.23776 -0.545463,0.08321 -1.028942,0.213984 -1.07853,0.2972 -0.185952,0.261535 -0.09918,0.439855 0.272731,0.558735 0.210748,0.07133 0.371908,0.213984 0.371908,0.320976 0.0124,0.11888 0.136366,0.427968 0.285128,0.701392 0.371907,0.665728 1.809946,2.413263 2.008296,2.413263 0.07438,0 0.235542,-0.0951 0.347113,-0.213984 0.285128,-0.297199 1.698374,-3.269199 1.698374,-3.566399 0,-0.17832 0.07438,-0.261535 0.235542,-0.261535 0.309922,0 0.421494,-0.17832 0.322318,-0.487408 -0.08678,-0.23776 -0.148763,-0.249648 -0.917369,-0.190208 -0.446289,0.03566 -1.004148,0.106992 -1.227293,0.154544 l -0.421494,0.08322 0.0248,-3.01955 c 0.0248,-3.661503 0.03719,-3.435631 -0.173557,-3.435631 -0.09917,0 -0.210746,0.0951 -0.247936,0.202096 z m 1.785152,6.859374 c 0,0.17832 -1.425643,2.627246 -1.524817,2.627246 -0.198351,0 -1.450436,-1.830751 -1.450436,-2.104175 0,-0.273424 0.03719,-0.285312 1.425642,-0.427968 1.549611,-0.142655 1.549611,-0.142655 1.549611,-0.0951 z"
       id="path7559" />
    <path
       style="stroke-width:0.01213978"
       inkscape:connector-curvature="0"
       d="m 134.66779,70.627044 c -0.18595,0.225872 -0.19835,1.093695 -0.062,5.397149 0.0992,3.328639 0.13636,3.221647 -0.69423,3.221647 -0.52067,0 -0.89258,0.2972 -0.59505,0.487407 0.0992,0.05944 0.21075,0.106993 0.27273,0.106993 0.0496,0 0.0868,0.225872 0.0868,0.511184 0,0.558735 0.42149,1.474111 0.7686,1.676207 0.16117,0.0951 0.28513,0.05944 0.53307,-0.166433 0.4339,-0.392303 1.16531,-1.545439 1.25209,-1.997182 0.0868,-0.404192 -0.0124,-0.499296 -0.75621,-0.689504 -0.33471,-0.08322 -0.47109,-0.17832 -0.43389,-0.2972 0.0248,-0.0951 0.062,-1.973407 0.062,-4.184574 0,-4.077583 -0.0496,-4.517438 -0.43389,-4.065694 z m 1.02894,9.165643 c 0.0744,0.08322 -0.8058,1.402784 -1.01655,1.533552 -0.23554,0.130768 -0.45868,-0.677616 -0.39669,-1.462223 0.0124,-0.142657 1.26447,-0.213984 1.41324,-0.07133 z"
       id="path7561" />
    <path
       style="stroke-width:0.01213978"
       inkscape:connector-curvature="0"
       d="m 71.009757,80.101776 c -1.698375,0.04755 -4.004196,0.106992 -5.119916,0.142656 -1.11572,0.02377 -2.057884,0.07133 -2.095075,0.118879 -0.04959,0.03566 -0.0124,0.07133 0.06198,0.07133 0.07438,0 0.247939,0.11888 0.384304,0.249648 0.247938,0.261536 0.260334,0.261536 3.818243,0.154544 5.665378,-0.166431 17.715156,-0.130768 19.140797,0.05944 0.657036,0.08322 1.264484,0.202097 1.351262,0.249648 0.111572,0.05944 0.161159,1.379008 0.19835,5.183167 l 0.06198,5.099949 -4.686025,-0.02377 c -2.578553,-0.01189 -8.305917,-0.04755 -12.731606,-0.05943 l -8.033185,-0.03566 0.02479,-1.723759 c 0.0124,-0.951041 0.07438,-2.104176 0.148763,-2.555919 0.06198,-0.463633 0.148763,-1.985296 0.185953,-3.38808 0.03719,-1.616766 0.111572,-2.615358 0.19835,-2.710462 0.16116,-0.190208 -0.07438,-0.380416 -0.495875,-0.380416 -0.260335,0 -0.260335,0.01189 -0.322319,2.936335 -0.0372,1.628656 -0.123969,3.25731 -0.185954,3.625839 -0.07438,0.380415 -0.148763,1.604879 -0.161159,2.734239 l -0.03719,2.056622 0.55786,0.106992 c 0.334716,0.05944 2.132265,0.05944 4.338912,0 2.070281,-0.05944 5.243884,-0.07133 7.053831,-0.03566 1.809945,0.04756 5.801743,0.08322 8.876173,0.0951 4.896771,0.01189 5.615791,-0.01189 5.752157,-0.166432 0.12397,-0.142656 0.148764,-1.260127 0.09918,-5.33771 -0.08678,-6.585963 0.09918,-6.086668 -2.392598,-6.383867 -1.35126,-0.166433 -11.578695,-0.213985 -15.991988,-0.08322 z m 18.037475,1.046143 c 0,0.05944 -0.06198,0.11888 -0.136366,0.11888 -0.06198,0 -0.08678,-0.05944 -0.04959,-0.11888 0.03719,-0.07133 0.09918,-0.11888 0.136366,-0.11888 0.02479,0 0.04958,0.04755 0.04959,0.11888 z"
       id="path7563" />
    <path
       style="stroke-width:0.01213978"
       inkscape:connector-curvature="0"
       d="m 144.77125,82.217839 c -0.3843,0.166432 -1.15291,0.261535 -3.5951,0.404191 -5.05793,0.320976 -9.91751,0.546848 -11.96299,0.546848 -2.78931,0.01189 -4.36371,0.154544 -4.77281,0.404191 -0.30991,0.190209 -0.32231,0.225874 -0.13636,0.404194 0.17356,0.166431 0.21075,0.166431 0.42149,-0.01189 0.18595,-0.166431 0.64464,-0.202096 2.88848,-0.261536 5.9629,-0.166432 15.44652,-0.689504 17.24407,-0.962927 0.33472,-0.04756 0.48348,-0.02377 0.52067,0.0951 0.0248,0.08322 0.11157,0.903488 0.19835,1.818864 0.0744,0.915375 0.30992,2.460815 0.50827,3.423743 0.21075,0.974814 0.35951,1.985295 0.33472,2.258718 -0.0372,0.499296 -0.0372,0.499296 -0.65703,0.606288 -0.33472,0.05944 -2.71493,0.08322 -5.26868,0.05944 -7.77286,-0.08322 -13.37625,-0.03566 -14.62833,0.106992 -0.7934,0.09511 -1.2149,0.09511 -1.30168,0.01189 -0.0744,-0.07133 -0.16115,-1.283904 -0.21075,-2.936334 -0.0868,-2.841232 -0.24793,-3.934927 -0.58265,-4.041919 -0.13636,-0.04755 -0.16116,0.04756 -0.0868,0.463631 0.0496,0.285313 0.13637,1.854528 0.19835,3.495071 0.0496,1.628656 0.13637,3.090879 0.18595,3.245423 0.12398,0.35664 0.49588,0.427968 1.37606,0.273424 0.96696,-0.17832 5.67778,-0.392305 7.53731,-0.344752 l 1.47523,0.03566 0.0496,2.199279 c 0.0372,1.212575 0.0992,2.567808 0.13636,3.031439 l 0.0868,0.83216 2.04549,-0.02377 c 1.12811,-0.02377 4.61164,-0.0951 7.74806,-0.166432 5.66537,-0.142656 10.7357,-0.05944 14.44238,0.249648 0.71901,0.05944 2.10746,0.142656 3.09921,0.17832 2.0331,0.08322 2.19426,0.11888 2.0083,0.332863 -0.0744,0.08322 -0.14876,0.35664 -0.17356,0.618176 l -0.0372,0.475521 -0.73142,0.05944 c -0.96695,0.08322 -1.11571,0.285313 -0.64464,0.8916 0.35951,0.451747 1.28928,1.081807 1.78515,1.200687 0.21076,0.0594 0.42151,-0.0357 0.86779,-0.3923 0.32232,-0.26154 0.73141,-0.57062 0.91736,-0.67762 0.38432,-0.237759 0.55786,-0.630063 0.35952,-0.820271 -0.0744,-0.07133 -0.48348,-0.142655 -0.90497,-0.166432 -0.43389,-0.02377 -0.84299,-0.05944 -0.92976,-0.0951 -0.17357,-0.05944 -0.0992,-0.796496 0.12396,-1.224464 0.21075,-0.427968 -0.0248,-0.523071 -1.54962,-0.630063 -0.7686,-0.05944 -1.9835,-0.154544 -2.70251,-0.225873 -3.2232,-0.297199 -6.14887,-0.404191 -11.1572,-0.404191 -5.26868,0 -13.31427,0.202096 -13.83493,0.344752 -0.27273,0.08322 -0.27273,0.05944 -0.34712,-2.401375 -0.0496,-1.355232 -0.11157,-2.615359 -0.13636,-2.793679 l -0.0496,-0.320976 4.73561,0.07133 c 4.76041,0.07133 5.9877,0.01189 6.74391,-0.344752 0.32232,-0.142656 0.34711,-0.213984 0.3843,-0.962927 0.0247,-0.47552 -0.0868,-1.474112 -0.27273,-2.496479 -0.17355,-0.927264 -0.40909,-2.496479 -0.52066,-3.471295 -0.27273,-2.353823 -0.28513,-2.3776 -1.2273,-1.961519 z m 20.36809,17.653672 c 0.0868,0.07133 -0.59504,0.641949 -0.7686,0.653839 -0.17356,0 -0.94217,-0.582511 -0.94217,-0.725167 0,-0.118879 1.5868,-0.05944 1.71077,0.07133 z"
       id="path7565" />
    <path
       style="stroke-width:0.01213978"
       inkscape:connector-curvature="0"
       d="m 74.889984,82.895454 c -0.247938,0.380416 -0.570258,0.986704 -0.719021,1.343344 -0.148762,0.35664 -0.384303,0.915376 -0.520668,1.24824 -0.136366,0.320975 -0.458686,1.022367 -0.71902,1.545439 -0.297525,0.570623 -0.433892,0.998591 -0.371906,1.058031 0.185953,0.17832 0.471081,-0.154544 0.942163,-1.081807 l 0.433891,-0.879712 1.004148,0.03566 1.016544,0.03566 0.161161,0.95104 c 0.08678,0.511183 0.23554,0.986702 0.322318,1.034255 0.545464,0.332864 0.52067,-0.08322 -0.297525,-3.744718 -0.19835,-0.8916 -0.359509,-1.771312 -0.359509,-1.925856 0,-0.53496 -0.421495,-0.35664 -0.892576,0.380416 z m 0.508272,0.95104 c 0.297525,1.200688 0.359509,1.509775 0.309923,1.604879 -0.03719,0.04755 -0.347114,0.0951 -0.68183,0.0951 -0.892576,0 -0.904973,-0.07133 -0.185954,-1.699983 0.111572,-0.23776 0.260335,-0.439855 0.32232,-0.439855 0.06198,0 0.16116,0.202095 0.235541,0.439855 z"
       id="path7567" />
    <path
       style="stroke-width:0.01213978"
       inkscape:connector-curvature="0"
       d="m 134.45704,85.023406 c -0.3967,0.499295 -2.0207,3.483182 -2.0207,3.709054 0,0.320975 0.4339,0.05944 0.74382,-0.451744 0.32232,-0.523072 0.33472,-0.523072 0.99175,-0.546848 0.37191,0 0.7934,-0.04755 0.94217,-0.08321 0.22314,-0.08322 0.27273,-0.01189 0.3843,0.594399 0.18596,0.939152 0.37191,1.343344 0.59505,1.343344 0.22314,0 0.23554,-0.213985 0.0496,-0.677616 -0.0744,-0.17832 -0.17356,-0.986704 -0.23555,-1.783199 -0.0744,-1.117471 -0.16115,-1.592992 -0.37191,-1.997184 -0.33471,-0.665728 -0.60744,-0.689503 -1.07852,-0.106991 z m 0.88018,1.367119 c 0.0744,0.772719 0,0.951039 -0.4091,0.879711 -0.11157,-0.02377 -0.40909,-0.04755 -0.65703,-0.04755 -0.26033,-0.01189 -0.47108,-0.04755 -0.47108,-0.106991 0,-0.04756 0.23553,-0.511185 0.52066,-1.022369 0.49588,-0.927263 0.50828,-0.93915 0.71903,-0.689503 0.12396,0.130768 0.24793,0.570624 0.29752,0.986703 z"
       id="path7569" />
    <path
       style="stroke-width:0.01213978"
       inkscape:connector-curvature="0"
       d="m 74.951967,92.94081 c -0.04958,0.08322 -0.123969,1.022367 -0.136365,2.0804 l -0.04958,1.925854 -0.818195,0.07133 c -0.458684,0.04755 -0.929766,0.106993 -1.041338,0.130769 -0.272731,0.07133 -0.285128,0.332863 -0.03719,0.606287 0.297525,0.332864 1.264483,1.711872 1.562008,2.223055 0.148763,0.261535 0.384304,0.558735 0.533067,0.677615 0.173555,0.14265 0.223144,0.24965 0.136365,0.33286 -0.07438,0.0713 -2.330614,0.13077 -6.111667,0.15455 l -6.000095,0.0357 -0.173556,0.47552 c -0.223144,0.61817 -0.223144,1.41467 0.02479,3.63772 0.111573,1.01049 0.19835,2.66292 0.185954,3.68529 v 1.85452 l 0.458685,0.0832 c 0.247937,0.0356 3.024841,0.0713 6.161254,0.0713 3.136413,0 7.01664,0.0475 8.615839,0.11887 8.838983,0.34476 9.867924,0.36853 10.20264,0.22588 0.185953,-0.0832 0.35951,-0.22588 0.384305,-0.33287 0.111571,-0.34475 0.322318,-2.52025 0.260334,-2.61535 -0.09918,-0.16643 -0.173557,-6.63351 -0.07438,-6.97826 0.19835,-0.67762 -0.210747,-0.90349 -0.545463,-0.2972 -0.148763,0.2972 -0.173557,1.06992 -0.148763,5.19506 0.0124,3.76849 -0.0124,4.8503 -0.136366,4.89785 -0.07438,0.0238 -0.148762,-0.0356 -0.148762,-0.14265 0,-0.10699 -0.09917,-0.19021 -0.260335,-0.19021 -0.136365,0 -1.041339,-0.0595 -2.008296,-0.11888 -3.099222,-0.21398 -12.929956,-0.47552 -17.591187,-0.47552 h -4.512468 l -0.0124,-1.93775 c 0,-1.05803 -0.07438,-2.41326 -0.148763,-2.99577 -0.08678,-0.5944 -0.185954,-1.61677 -0.223144,-2.29439 l -0.07438,-1.21257 h 5.442235 c 3.000048,-0.0119 6.13646,-0.0594 6.991846,-0.11888 6.173652,-0.42797 8.925761,-0.5944 10.103466,-0.60629 0.75621,0 1.611596,-0.0476 1.921518,-0.0832 0.483478,-0.0713 0.557859,-0.11888 0.557859,-0.38041 v -0.28531 l -1.735563,0.0238 c -0.954561,0.0119 -2.491776,0.0832 -3.409145,0.14266 -5.640585,0.40419 -6.731512,0.47552 -7.153006,0.47552 H 75.48504 l 0.322318,-0.33287 c 0.173558,-0.17832 0.471082,-0.54685 0.64464,-0.832156 0.297525,-0.451744 0.99175,-1.390895 1.31407,-1.771312 0.185953,-0.213983 0.148762,-0.34475 -0.185954,-0.701391 -0.173557,-0.178319 -0.309922,-0.356639 -0.309922,-0.404192 0,-0.04755 -0.409097,-0.05944 -0.91737,-0.02377 l -0.91737,0.04755 -0.03719,-0.463632 c -0.03719,-0.261536 -0.02479,-1.081807 0.0124,-1.830751 0.07438,-1.331456 0,-1.890192 -0.235542,-1.890192 -0.06198,0 -0.16116,0.07133 -0.223144,0.142656 z m 2.181853,4.826526 c -0.694226,0.891599 -1.376055,1.795087 -1.537214,2.02096 -0.247938,0.332864 -0.35951,0.273424 -0.731417,-0.427968 -0.161159,-0.309089 -0.471081,-0.760832 -0.681828,-1.022368 -0.210747,-0.249648 -0.35951,-0.499296 -0.322319,-0.546848 0.03719,-0.04756 0.59505,-0.0951 1.264483,-0.106992 0.669431,-0.01189 1.227291,-0.04755 1.264482,-0.08322 0.0248,-0.02377 0.247939,-0.04755 0.483479,-0.04755 0.3967,0 0.409097,0.01189 0.260334,0.213984 z"
       id="path7571" />
    <path
       style="stroke-width:0.01213978"
       inkscape:connector-curvature="0"
       d="m 147.57295,94.688345 c -0.32232,0.202096 -0.0496,0.487408 0.47108,0.487408 0.63224,0 0.74381,-0.17832 0.27273,-0.41608 -0.42149,-0.202096 -0.50827,-0.213984 -0.74381,-0.07133 z"
       id="path7575" />
    <path
       style="stroke-width:0.01213978"
       inkscape:connector-curvature="0"
       d="m 145.22994,94.961769 c 0.0248,0.202096 0.13637,0.285312 0.3967,0.309088 0.48348,0.05944 0.70662,-0.178319 0.3967,-0.404192 -0.13637,-0.0951 -0.3843,-0.166431 -0.54546,-0.166431 -0.23555,0 -0.28513,0.05944 -0.24794,0.261535 z"
       id="path7577" />
    <path
       style="stroke-width:0.01213978"
       inkscape:connector-curvature="0"
       d="m 149.59364,94.997433 c -0.0992,0.249648 0.0496,0.41608 0.38431,0.41608 0.35951,0 0.50826,-0.190208 0.30992,-0.41608 -0.19835,-0.225871 -0.60745,-0.225871 -0.69423,0 z"
       id="path7579" />
    <path
       style="stroke-width:0.01213978"
       inkscape:connector-curvature="0"
       d="m 151.46558,94.937993 c -0.12398,0.190208 0.17355,0.47552 0.50827,0.47552 0.3719,0 0.47108,-0.17832 0.22314,-0.404191 -0.22314,-0.213985 -0.61984,-0.249649 -0.73141,-0.07133 z"
       id="path7581" />
    <path
       style="stroke-width:0.01213978"
       inkscape:connector-curvature="0"
       d="m 153.56065,94.973657 c -0.11157,0.2972 0.0496,0.439856 0.52067,0.439856 0.27273,0 0.45868,-0.07133 0.50827,-0.17832 0.0868,-0.249648 0.0248,-0.2972 -0.50827,-0.380416 -0.33472,-0.04755 -0.45869,-0.02377 -0.52067,0.11888 z"
       id="path7583" />
    <path
       style="stroke-width:0.01213978"
       inkscape:connector-curvature="0"
       d="m 157.10617,94.997433 c -0.21076,0.249648 -0.0496,0.41608 0.42148,0.41608 0.57025,0 0.7934,-0.273424 0.37191,-0.451744 -0.4091,-0.190207 -0.60744,-0.17832 -0.79339,0.03566 z"
       id="path7585" />
    <path
       style="stroke-width:0.01213978"
       inkscape:connector-curvature="0"
       d="m 159.3128,94.961769 c -0.11157,0.297201 0.0496,0.451744 0.45869,0.451744 0.48347,0 0.64464,-0.166432 0.43389,-0.41608 -0.18595,-0.213984 -0.81819,-0.23776 -0.89258,-0.03566 z"
       id="path7587" />
    <path
       style="stroke-width:0.01213978"
       inkscape:connector-curvature="0"
       d="m 161.19714,94.997433 c -0.23555,0.273424 -0.0248,0.41608 0.61984,0.41608 0.33471,0 0.64464,-0.05944 0.68183,-0.118879 0.14877,-0.225873 -0.21075,-0.475521 -0.68183,-0.475521 -0.26034,0 -0.53307,0.08322 -0.61984,0.17832 z"
       id="path7589" />
    <path
       style="stroke-width:0.01213978"
       inkscape:connector-curvature="0"
       d="m 142.94891,95.02121 c -0.24794,0.05944 -0.29752,0.332863 -0.0992,0.451743 0.0744,0.04756 0.44628,0.03566 0.83059,-0.01189 l 0.69422,-0.08321 -0.29752,-0.213985 c -0.28513,-0.213983 -0.66943,-0.261536 -1.12812,-0.142655 z"
       id="path7591" />
    <path
       style="stroke-width:0.01213978"
       inkscape:connector-curvature="0"
       d="m 155.37059,95.092538 c 0,0.237759 0.11157,0.297199 0.3843,0.237759 0.34712,-0.0951 0.29753,-0.392304 -0.0744,-0.392304 -0.17355,0 -0.30992,0.07133 -0.30992,0.154545 z"
       id="path7593" />
    <path
       style="stroke-width:0.01213978"
       inkscape:connector-curvature="0"
       d="m 139.8249,95.508618 c -0.26034,0.416079 1.27687,0.689502 1.84713,0.332863 0.17355,-0.106992 0.28513,-0.249648 0.24794,-0.309088 -0.0868,-0.142656 -2.0083,-0.154544 -2.09507,-0.02377 z"
       id="path7595" />
    <path
       style="stroke-width:0.01213978"
       inkscape:connector-curvature="0"
       d="m 136.1926,95.627497 c -0.69422,0.03566 -0.78099,0.05944 -0.78099,0.285312 0,0.225872 0.062,0.23776 0.80579,0.190207 0.50827,-0.02377 0.88018,-0.118879 1.00415,-0.237759 0.17356,-0.166432 0.17356,-0.190208 -0.0372,-0.225872 -0.12397,-0.02377 -0.57026,-0.03566 -0.99176,-0.01189 z"
       id="path7597" />
    <path
       style="stroke-width:0.01213978"
       inkscape:connector-curvature="0"
       d="m 129.60985,96.031688 c 0.0248,0.225873 0.12397,0.285313 0.59506,0.309089 0.69423,0.04755 1.48762,-0.166433 1.48762,-0.392304 0,-0.142656 -0.21074,-0.17832 -1.06613,-0.17832 -1.02894,0 -1.05373,0.01189 -1.01655,0.261535 z"
       id="path7599" />
    <path
       style="stroke-width:0.01213978"
       inkscape:connector-curvature="0"
       d="m 116.96503,96.091129 c 0.0495,0.249648 0.91737,0.368527 1.14052,0.154544 0.19835,-0.190208 -0.12398,-0.35664 -0.70663,-0.35664 -0.38431,0 -0.47108,0.03566 -0.43389,0.202096 z"
       id="path7601" />
    <path
       style="stroke-width:0.01213978"
       inkscape:connector-curvature="0"
       d="m 120.72129,95.996025 c -0.16116,0.249648 0.19835,0.487408 0.74381,0.487408 0.52067,0 0.95456,-0.249648 0.69423,-0.41608 -0.27273,-0.154544 -1.33887,-0.213984 -1.43804,-0.07133 z"
       id="path7603" />
    <path
       style="stroke-width:0.01213978"
       inkscape:connector-curvature="0"
       d="m 125.39491,96.138681 c 0.0372,0.249648 0.11158,0.285311 0.69423,0.320975 0.65704,0.03566 1.14052,-0.142655 0.91737,-0.35664 -0.0496,-0.04755 -0.44629,-0.130767 -0.88018,-0.16643 -0.7686,-0.08322 -0.781,-0.08322 -0.73142,0.202095 z"
       id="path7605" />
    <path
       style="stroke-width:0.01213978"
       inkscape:connector-curvature="0"
       d="m 162.536,97.993208 c 0.14876,0.02377 0.3967,0.02377 0.55786,0 0.14876,-0.02377 0.0248,-0.04756 -0.28513,-0.04756 -0.30992,0 -0.43389,0.02377 -0.27273,0.04756 z"
       id="path7607" />
    <path
       style="stroke-width:0.01213978"
       inkscape:connector-curvature="0"
       d="m 156.10201,101.33373 c -0.71902,0.0476 -1.27688,0.14266 -1.38845,0.24965 -0.16116,0.13077 -0.24794,0.13077 -0.3967,0.0119 -0.0992,-0.0713 -0.23554,-0.10699 -0.30992,-0.0594 -0.17356,0.10699 -0.16116,0.5944 0.0744,2.19928 0.21075,1.53355 0.24793,3.88737 0.062,5.23072 -0.0744,0.48741 -0.13636,1.03426 -0.13636,1.20069 v 0.30909 l 3.13641,0.0713 c 1.71077,0.0356 3.84303,0.15455 4.71081,0.24965 0.88019,0.10699 1.64879,0.16643 1.71077,0.11888 0.062,-0.0356 0.70662,0.0238 1.45044,0.13077 2.73971,0.38041 12.3473,0.9867 12.59524,0.78461 0.26034,-0.2021 0.0992,-7.86986 -0.18595,-8.95167 -0.0744,-0.26153 -0.23554,-0.51118 -0.3967,-0.5944 -0.17356,-0.0951 -1.2149,-0.17832 -2.87608,-0.22587 -3.28517,-0.10699 -8.87617,-0.43986 -10.10347,-0.5944 -1.15291,-0.14266 -6.3472,-0.22587 -7.9464,-0.13077 z m 8.31831,0.72517 c 1.41325,0.14266 4.37611,0.33287 8.7398,0.54685 1.77276,0.0832 3.37196,0.20209 3.54552,0.27342 0.30992,0.11888 0.30992,0.13077 0.26034,1.11747 -0.0248,0.54685 0.0124,1.53356 0.0868,2.19929 0.11156,0.97481 0.0992,1.45033 -0.0496,2.48459 -0.11158,0.71327 -0.16117,1.50977 -0.11158,1.7832 0.0372,0.28531 0.0496,0.54684 0.0124,0.60628 -0.0372,0.0595 -0.61984,0.0713 -1.28928,0.0119 -1.19009,-0.0832 -2.96285,-0.21398 -6.3596,-0.46363 -0.91736,-0.0595 -2.44218,-0.20209 -3.37195,-0.2972 -0.95456,-0.0951 -2.07028,-0.14265 -2.54137,-0.0951 -0.45868,0.0356 -1.5496,0.0119 -2.40499,-0.0595 -0.86779,-0.0713 -2.61575,-0.16643 -3.89263,-0.20209 l -2.31821,-0.0832 0.0992,-0.78461 c 0.14875,-1.26013 0.12397,-4.50555 -0.062,-5.5398 -0.28513,-1.65244 -0.3843,-1.50978 1.04134,-1.56922 0.68182,-0.0357 1.26449,-0.0832 1.30168,-0.11888 0.0992,-0.0951 5.9877,0.0594 7.31415,0.19021 z"
       id="path7609" />
    <path
       style="stroke-width:0.01213978"
       inkscape:connector-curvature="0"
       d="m 158.90371,103.5449 c -0.66943,0.11888 -0.74381,0.16643 -0.74381,0.42797 0,0.28531 0.0372,0.2972 0.60743,0.26153 l 0.60747,-0.0238 -0.0868,0.54685 c -0.0372,0.30909 -0.0744,1.10559 -0.0744,1.7832 0,1.23635 0,1.23635 -0.30992,1.23635 -0.47109,0 -0.92977,0.24966 -0.92977,0.51119 0,0.20209 0.062,0.21398 0.781,0.14265 1.95871,-0.19021 2.8141,-0.41608 2.8141,-0.72516 0,-0.17833 -0.11157,-0.19021 -0.89257,-0.11888 l -0.88019,0.0951 0.0868,-1.69998 c 0.0372,-0.92727 0.11157,-1.72377 0.14877,-1.7832 0.0372,-0.0595 0.30992,-0.107 0.60745,-0.107 0.29752,0 0.61984,-0.0356 0.73141,-0.0713 0.26033,-0.0951 0.24794,-0.36853 -0.0124,-0.4993 -0.32232,-0.15454 -1.5868,-0.14265 -2.45458,0.0238 z"
       id="path7611" />
    <path
       style="stroke-width:0.01213978"
       inkscape:connector-curvature="0"
       d="m 163.03188,104.32951 c -0.50829,0.26154 -0.71903,0.54685 -0.71903,0.9867 0,0.34476 0.17356,0.4993 1.10332,0.97482 0.60746,0.30909 0.69423,0.40419 0.73142,0.74894 0.0744,0.74894 -0.50827,0.98671 -1.01654,0.41608 -0.33472,-0.36852 -0.57026,-0.28531 -0.57026,0.2021 0,0.45174 0.3967,0.71328 1.07853,0.71328 0.75621,0 1.16531,-0.36853 1.23969,-1.14125 0.0496,-0.51118 0.0248,-0.64195 -0.26033,-0.96292 -0.17356,-0.2021 -0.59505,-0.47553 -0.94217,-0.61818 -0.44629,-0.19021 -0.61984,-0.32098 -0.61984,-0.4993 0,-0.26154 0.64464,-0.58251 1.17769,-0.58251 0.24795,0 0.32233,-0.0475 0.28514,-0.21399 -0.062,-0.29719 -0.91737,-0.32098 -1.48762,-0.0238 z"
       id="path7613" />
    <path
       style="stroke-width:0.01213978"
       inkscape:connector-curvature="0"
       d="m 167.12284,104.36517 c -0.29752,0.2021 -0.43389,0.39231 -0.50827,0.73706 -0.062,0.26153 -0.21074,0.93915 -0.34711,1.49789 -0.18596,0.77272 -0.21075,1.10559 -0.11157,1.35523 0.16116,0.41608 0.57026,0.36853 0.52067,-0.0595 -0.0124,-0.16644 0.0744,-0.7014 0.21075,-1.18881 0.13636,-0.4874 0.26033,-1.10558 0.28512,-1.36712 0.0496,-0.47552 0.0496,-0.47552 0.63224,-0.51118 0.32233,-0.0238 0.66943,0.0119 0.79341,0.0713 0.17355,0.0951 0.0992,0.19021 -0.4339,0.55873 -0.7562,0.51119 -0.88017,0.83217 -0.59505,1.53356 0.27274,0.67761 1.15291,1.85452 1.38846,1.85452 0.28512,0 0.21074,-0.63006 -0.13637,-1.11747 -0.17356,-0.24964 -0.42149,-0.65383 -0.57026,-0.92726 l -0.26034,-0.47552 0.70663,-0.5944 c 0.55786,-0.48741 0.68183,-0.66573 0.65704,-0.91537 -0.0496,-0.35665 -0.3967,-0.54685 -1.23969,-0.64196 -0.45869,-0.0595 -0.64464,-0.0238 -0.99176,0.19021 z"
       id="path7615" />
    <path
       style="stroke-width:0.01213978"
       inkscape:connector-curvature="0"
       d="m 73.923026,104.38895 c -0.272731,0.28531 -0.285128,0.33286 -0.223144,1.90208 0.06198,1.53355 0.19835,2.06851 0.483479,1.89019 0.06198,-0.0356 0.111572,-0.77272 0.111572,-1.64054 0,-1.17692 0.03719,-1.61677 0.161159,-1.72376 0.123969,-0.0832 0.384303,-0.0951 0.904973,-0.0119 0.3967,0.0713 0.768607,0.11888 0.830592,0.11888 0.260335,0 0.0124,0.33287 -0.471082,0.61818 -0.669432,0.39231 -0.942163,0.84405 -0.669432,1.11747 0.111572,0.0951 0.458685,0.27343 0.805798,0.3923 0.334716,0.13077 0.619844,0.30909 0.644638,0.41608 0.08678,0.4042 -1.252086,1.11747 -2.107471,1.12936 -0.52067,0.0119 -0.694226,0.17833 -0.458685,0.45175 0.35951,0.40419 2.181853,-0.16643 2.838887,-0.87971 0.644639,-0.7014 0.471082,-1.22447 -0.520669,-1.61677 -0.260335,-0.10699 -0.471081,-0.23776 -0.471081,-0.2972 0,-0.0595 0.334716,-0.32097 0.743813,-0.57063 0.607447,-0.36853 0.743813,-0.51118 0.743813,-0.77271 0,-0.35665 0.0124,-0.35665 -1.27688,-0.64195 -1.239688,-0.26155 -1.723167,-0.23777 -2.07028,0.11887 z"
       id="path7617" />
    <path
       style="stroke-width:0.01213978"
       inkscape:connector-curvature="0"
       d="m 163.49056,111.29588 c -0.0744,0.0238 -0.11158,0.51118 -0.0868,1.23635 l 0.0496,1.20068 -0.54545,-0.0713 c -0.58267,-0.0832 -1.74797,-0.23777 -2.51658,-0.36853 -0.27273,-0.0356 -0.96696,-0.11888 -1.54961,-0.16643 -0.58265,-0.0595 -1.6116,-0.16643 -2.29342,-0.22587 -2.4174,-0.24965 -6.64474,-0.36853 -13.14071,-0.36853 -5.78934,-0.0119 -6.58275,0.0119 -6.70671,0.16643 -0.0744,0.10699 -0.23555,0.19021 -0.34712,0.19021 -0.18595,0 -0.19835,0.13077 -0.13636,1.27201 0.0496,0.71328 0.12396,1.73565 0.17355,2.29439 0.062,0.55873 0.0744,1.03425 0.0496,1.06991 -0.0248,0.0356 -0.28513,0.11889 -0.57026,0.19022 -0.48348,0.11887 -0.52067,0.15453 -0.49587,0.51118 0,0.21398 0.18595,0.65384 0.39669,0.9867 0.21075,0.32098 0.38431,0.5944 0.38431,0.61818 0,0.0119 -2.02069,0.0238 -4.48767,0.0238 l -4.48768,-0.0119 -0.0744,-0.28532 c -0.0372,-0.16642 -0.13637,-0.30909 -0.21075,-0.33286 -0.3595,-0.11888 -0.42149,0.47552 -0.40909,3.60206 0.0124,2.13984 -0.0248,3.19788 -0.11158,3.30487 -0.40909,0.47552 0.71903,0.64195 5.93811,0.90348 2.57856,0.11889 5.50423,0.34475 9.45883,0.72517 2.86368,0.26154 5.5662,0.30909 5.75216,0.0713 0.17356,-0.19021 0.17356,-6.49085 0.0124,-6.77616 -0.16116,-0.2972 -0.76861,-0.52307 -1.68598,-0.63006 -0.42149,-0.0356 -0.81819,-0.14266 -0.86778,-0.23776 -0.062,-0.11888 -0.86778,-0.15455 -3.59509,-0.17832 -2.97526,-0.0238 -3.49593,-0.0476 -3.49593,-0.20209 0,-0.0951 0.30992,-0.59441 0.68183,-1.10559 0.88017,-1.20069 0.84299,-1.33146 -0.42149,-1.27202 l -0.94217,0.0356 -0.0744,-0.95103 c -0.0372,-0.52308 -0.12397,-1.53355 -0.17355,-2.24683 l -0.0992,-1.2958 1.1653,0.0832 c 0.64464,0.0475 3.53312,0.0832 6.43399,0.0713 5.16951,0 9.38444,0.11888 11.83903,0.36853 0.68183,0.0595 1.77276,0.16643 2.41739,0.22587 0.64464,0.0595 1.73558,0.1902 2.4174,0.28531 1.5868,0.22587 2.65293,0.2972 2.72731,0.19021 0.0248,-0.0475 0.062,-0.65384 0.0744,-1.36712 0.0124,-0.93915 -0.0247,-1.30769 -0.14877,-1.42656 -0.0992,-0.0832 -0.22314,-0.13077 -0.29752,-0.10699 z m -25.47561,6.94258 c 0,0.0713 -0.21075,0.42797 -0.45869,0.78461 l -0.45868,0.66573 -0.4091,-0.43986 c -0.58266,-0.65384 -0.54546,-0.85593 0.18595,-0.95103 0.32233,-0.0356 0.66943,-0.0951 0.76861,-0.107 0.34711,-0.0713 0.37191,-0.0713 0.37191,0.0475 z m -1.11572,2.2825 c 0.17356,0.10699 0.30992,0.11888 0.44629,0.0356 0.11157,-0.0713 1.41324,-0.10699 3.34716,-0.0832 2.51657,0.0238 3.14881,0.0594 3.14881,0.19021 0,0.11888 0.33471,0.17832 1.28927,0.21398 0.70663,0.0356 1.43804,0.14265 1.63639,0.22588 l 0.34711,0.16642 0.0124,3.12655 v 3.11465 l -1.79754,-0.0713 c -0.99175,-0.0356 -2.57856,-0.14265 -3.53312,-0.23776 -0.95456,-0.0951 -2.49177,-0.22587 -3.40914,-0.2853 -0.91737,-0.0713 -2.23144,-0.16644 -2.91327,-0.23777 -0.68183,-0.0594 -1.9959,-0.14265 -2.91327,-0.17831 -2.7769,-0.11889 -5.31827,-0.34476 -5.46703,-0.4993 -0.0496,-0.0595 -0.062,-1.34334 -0.0248,-2.86501 l 0.0744,-2.75801 h 4.7604 c 3.57031,0 4.81,0.0356 4.99595,0.14265 z"
       id="path7619" />
    <path
       style="stroke-width:0.01213978"
       inkscape:connector-curvature="0"
       d="m 135.23805,121.98318 c -0.12397,0.11888 -0.17356,0.28532 -0.13637,0.4042 0.0496,0.10699 0.0992,0.51118 0.13637,0.90349 0.0248,0.39229 0.0744,1.01047 0.11156,1.39089 0.0496,0.41608 0.0247,0.70139 -0.062,0.74894 -0.24793,0.14266 0.0125,0.2972 0.52068,0.2972 0.60744,0 1.52481,-0.3923 1.77275,-0.76083 0.29753,-0.43986 0.27273,-0.85593 -0.062,-1.20068 l -0.30993,-0.32098 0.40911,-0.30909 c 0.26033,-0.21399 0.39669,-0.42797 0.39669,-0.63006 0,-0.27343 -0.0744,-0.33287 -0.55786,-0.45175 -0.30991,-0.0713 -0.88017,-0.16643 -1.27688,-0.20209 -0.58265,-0.0595 -0.75621,-0.0356 -0.94216,0.13076 z m 1.51241,0.53496 c 0.37191,0 0.34712,0.2972 -0.0372,0.54685 -0.43389,0.27342 -0.40909,0.6895 0.062,0.96293 0.21074,0.10699 0.37191,0.29719 0.37191,0.40419 0,0.22587 -0.4339,0.53496 -0.91738,0.65384 l -0.32232,0.0713 -0.0124,-1.08181 c -0.0124,-0.5944 -0.0124,-1.16502 -0.0124,-1.26013 0,-0.3923 0.0372,-0.43986 0.30992,-0.36853 0.14876,0.0356 0.39671,0.0713 0.55786,0.0713 z"
       id="path7621" />
    <path
       style="stroke-width:0.01213978"
       inkscape:connector-curvature="0"
       d="m 74.927174,112.27069 c -0.08678,0.19021 -0.210747,0.8916 -0.297525,1.58111 l -0.148763,1.23635 -0.446287,0.0595 c -0.235542,0.0475 -0.495877,0.10699 -0.570258,0.15454 -0.520669,0.30908 0.942164,3.29297 1.623993,3.29297 0.19835,0 0.260334,-0.0713 1.239689,-1.52166 0.644638,-0.95104 0.917369,-1.66432 0.743813,-1.93774 -0.06198,-0.0951 -0.384304,-0.107 -0.991751,-0.0595 l -0.91737,0.0832 v -0.36854 c 0,-0.1902 0.08678,-0.87971 0.19835,-1.50977 0.148763,-0.93915 0.16116,-1.16502 0.0248,-1.23635 -0.247938,-0.15454 -0.309922,-0.13077 -0.458685,0.22587 z m 1.47523,3.54262 c 0,0.0356 -0.247938,0.35665 -0.557861,0.72517 -0.309921,0.35664 -0.557859,0.72517 -0.557859,0.80839 0,0.0832 -0.07438,0.17831 -0.173556,0.21398 -0.161161,0.0595 -0.632242,-0.63006 -0.942165,-1.39089 l -0.123968,-0.33287 0.520669,0.0595 c 0.297525,0.0356 0.644638,0.0238 0.781004,-0.0356 0.285129,-0.11888 1.053736,-0.15455 1.053736,-0.0475 z"
       id="path7623" />
    <path
       style="stroke-width:0.01213978"
       inkscape:connector-curvature="0"
       d="m 118.94854,114.9336 c 0.0247,0.21399 0.14875,0.28531 0.58265,0.35664 0.59504,0.0951 0.75621,0.0475 0.75621,-0.21398 0,-0.2021 -0.49588,-0.40419 -1.00415,-0.40419 -0.32232,0 -0.37191,0.0356 -0.33471,0.26153 z"
       id="path7625" />
    <path
       style="stroke-width:0.01213978"
       inkscape:connector-curvature="0"
       d="m 125.12218,114.90983 c 0,0.20209 0.0868,0.23776 0.55786,0.23776 0.47108,0 0.55786,-0.0356 0.55786,-0.23776 0,-0.2021 -0.0868,-0.23776 -0.55786,-0.23776 -0.47108,0 -0.55786,0.0356 -0.55786,0.23776 z"
       id="path7627" />
    <path
       style="stroke-width:0.01213978"
       inkscape:connector-curvature="0"
       d="m 127.47759,114.85039 c 0,0.3923 1.06614,0.57062 1.37606,0.22587 0.22314,-0.26153 -0.0372,-0.40419 -0.78101,-0.40419 -0.44629,0 -0.59505,0.0475 -0.59505,0.17832 z"
       id="path7629" />
    <path
       style="stroke-width:0.01213978"
       inkscape:connector-curvature="0"
       d="m 130.70079,114.89793 c 0,0.27343 0.44628,0.43986 0.86778,0.3091 0.47108,-0.14266 0.24793,-0.47552 -0.34712,-0.51119 -0.45868,-0.0356 -0.52066,-0.0119 -0.52066,0.20209 z"
       id="path7631" />
    <path
       style="stroke-width:0.01213978"
       inkscape:connector-curvature="0"
       d="m 116.98983,114.96926 c -0.0495,0.107 -0.0248,0.24965 0.0496,0.32098 0.18595,0.17832 0.54546,0.0119 0.49587,-0.22587 -0.0496,-0.27343 -0.44629,-0.34475 -0.54546,-0.0951 z"
       id="path7633" />
    <path
       style="stroke-width:0.01213978"
       inkscape:connector-curvature="0"
       d="m 122.44446,114.94549 c -0.12397,0.30909 0.062,0.43985 0.58265,0.43985 0.32232,0 0.52067,-0.0595 0.57025,-0.17831 0.0992,-0.24965 0.0124,-0.3091 -0.57025,-0.38042 -0.3843,-0.0475 -0.52067,-0.0238 -0.58265,0.11888 z"
       id="path7635" />
    <path
       style="stroke-width:0.01213978"
       inkscape:connector-curvature="0"
       d="m 133.24215,115.0287 c -0.14877,0.22588 0.19835,0.47553 0.69422,0.47553 0.47108,0 0.73142,-0.17832 0.53307,-0.35664 -0.19835,-0.16643 -1.12811,-0.26154 -1.22729,-0.11889 z"
       id="path7637" />
    <path
       style="stroke-width:0.01213978"
       inkscape:connector-curvature="0"
       d="m 137.74222,115.15948 c -0.12397,0.0594 -0.22315,0.20209 -0.22315,0.2853 0,0.14266 0.18596,0.17833 0.8058,0.17833 0.64464,0 0.8058,-0.0356 0.8058,-0.17833 0,-0.34475 -0.95457,-0.53495 -1.38845,-0.2853 z"
       id="path7639" />
    <path
       style="stroke-width:0.01213978"
       inkscape:connector-curvature="0"
       d="m 140.24639,115.68254 c -0.18596,0.21399 -0.0744,0.35665 0.3843,0.45175 0.3719,0.0951 0.76861,-0.14266 0.63224,-0.35664 -0.17356,-0.26154 -0.81819,-0.32097 -1.01654,-0.0951 z"
       id="path7641" />
    <path
       style="stroke-width:0.01213978"
       inkscape:connector-curvature="0"
       d="m 141.91997,115.74199 c -0.16116,0.24964 0.29752,0.47552 0.94216,0.47552 0.3967,0 0.60745,-0.0595 0.64464,-0.17832 0.0992,-0.23776 -0.0496,-0.30909 -0.83059,-0.38042 -0.45869,-0.0475 -0.69422,-0.0238 -0.75621,0.0832 z"
       id="path7643" />
    <path
       style="stroke-width:0.01213978"
       inkscape:connector-curvature="0"
       d="m 149.81679,115.88464 c 0.0372,0.23776 0.0992,0.27342 0.53307,0.23776 0.91736,-0.0713 0.90497,-0.49929 -0.0124,-0.49929 -0.50828,0 -0.55786,0.0238 -0.52068,0.26153 z"
       id="path7645" />
    <path
       style="stroke-width:0.01213978"
       inkscape:connector-curvature="0"
       d="m 151.84988,115.71821 c -0.0992,0.16643 0.24794,0.40419 0.50827,0.35664 0.34712,-0.0594 0.27273,-0.39231 -0.11157,-0.42797 -0.17356,-0.0238 -0.35952,0.0119 -0.3967,0.0713 z"
       id="path7647" />
    <path
       style="stroke-width:0.01213978"
       inkscape:connector-curvature="0"
       d="m 147.06468,116.09862 c 0,0.22588 0.062,0.24965 0.59504,0.21399 0.42151,-0.0238 0.58266,-0.0832 0.58266,-0.21399 0,-0.13076 -0.16115,-0.1902 -0.58266,-0.21398 -0.53306,-0.0356 -0.59504,-0.0119 -0.59504,0.21398 z"
       id="path7649" />
    <path
       style="stroke-width:0.01213978"
       inkscape:connector-curvature="0"
       d="m 154.32925,115.96786 c -0.14876,0.22587 0.0496,0.36853 0.48348,0.36853 0.38431,0 0.66943,-0.16643 0.52068,-0.3091 -0.13637,-0.14265 -0.92977,-0.17831 -1.00416,-0.0594 z"
       id="path7651" />
    <path
       style="stroke-width:0.01213978"
       inkscape:connector-curvature="0"
       d="m 155.99044,116.08674 c 0,0.2972 0.50827,0.45174 0.97935,0.2972 0.57025,-0.2021 0.39671,-0.46364 -0.32232,-0.4993 -0.59505,-0.0356 -0.65703,-0.0119 -0.65703,0.2021 z"
       id="path7653" />
    <path
       style="stroke-width:0.01213978"
       inkscape:connector-curvature="0"
       d="m 158.40784,115.97975 c -0.12398,0.19021 0.0496,0.35664 0.3843,0.35664 0.21075,0 0.29752,-0.0595 0.29752,-0.23777 0,-0.17832 -0.0868,-0.23776 -0.29752,-0.23776 -0.17356,0 -0.34711,0.0475 -0.3843,0.11889 z"
       id="path7655" />
    <path
       style="stroke-width:0.01213978"
       inkscape:connector-curvature="0"
       d="m 160.99878,116.03919 c -0.0868,0.21398 0.0372,0.41608 0.27273,0.41608 0.0992,0 0.17356,-0.11888 0.17356,-0.29721 0,-0.32097 -0.33472,-0.41607 -0.44629,-0.11887 z"
       id="path7657" />
    <path
       style="stroke-width:0.01213978"
       inkscape:connector-curvature="0"
       d="m 144.6101,116.18184 c 0.0248,0.15455 0.17355,0.22587 0.50826,0.24965 0.4091,0.0356 0.47109,0.0119 0.4339,-0.17832 -0.0248,-0.15455 -0.17356,-0.22588 -0.50828,-0.24965 -0.40909,-0.0356 -0.47108,-0.0119 -0.43388,0.17832 z"
       id="path7659" />
    <path
       style="stroke-width:0.01213978"
       inkscape:connector-curvature="0"
       d="m 71.009757,119.18951 c -2.925666,0.0475 -5.90092,0.13077 -6.595146,0.17831 l -1.264482,0.0951 -0.161161,0.42796 c -0.185952,0.4993 -0.210746,4.10137 -0.04959,6.81183 l 0.111572,1.73565 0.285128,-0.16643 c 0.3967,-0.26154 0.471082,-1.02237 0.247938,-2.7818 -0.198351,-1.50978 -0.272732,-4.9454 -0.09918,-5.18317 0.04959,-0.0713 0.19835,-0.16642 0.334716,-0.21398 0.582653,-0.21398 23.492107,-0.46363 23.715251,-0.26153 0.03719,0.0475 0.0124,0.52307 -0.07438,1.05803 -0.161159,1.0818 -0.19835,3.94681 -0.07438,6.69294 0.07438,1.61677 0.111572,1.7832 0.309923,1.79509 0.123968,0.0119 0.272731,-0.0475 0.322318,-0.11888 0.04959,-0.0713 0.09918,-2.11606 0.111572,-4.54122 0.0248,-2.41326 0.04959,-4.62443 0.06198,-4.90974 0.0124,-0.28531 -0.0248,-0.54685 -0.07438,-0.5944 -0.111572,-0.11888 -10.586943,-0.13077 -17.107708,-0.0238 z"
       id="path7661" />
    <path
       style="stroke-width:0.01213978"
       inkscape:connector-curvature="0"
       d="m 75.10073,122.18528 c -1.053735,0.52307 -1.51242,0.8916 -1.884326,1.486 -0.607449,0.99859 -0.247938,2.23494 0.781004,2.66291 0.706622,0.30909 1.946311,0.27342 2.008296,-0.0475 0.03719,-0.16643 -0.04959,-0.2021 -0.495876,-0.2021 -1.128117,-0.0119 -1.958708,-0.66573 -1.958708,-1.54544 0,-0.52307 0.904972,-1.41467 1.995898,-1.96152 0.842989,-0.41608 1.028942,-0.6895 0.533067,-0.73705 -0.12397,-0.0119 -0.570257,0.14265 -0.979355,0.34475 z"
       id="path7663" />
    <path
       style="stroke-width:0.01213978"
       inkscape:connector-curvature="0"
       d="m 135.78351,127.74886 c -0.0868,0.15455 -0.16116,0.96293 -0.17356,1.93774 l -0.0372,1.67621 -0.39669,0.10699 c -0.3967,0.0951 -0.3967,0.0951 -0.32232,0.65384 0.0496,0.30909 0.22314,0.84405 0.3843,1.1888 0.27273,0.5944 0.30992,0.63007 0.69423,0.5944 0.32232,-0.0238 0.48347,-0.15454 0.88017,-0.6895 0.26034,-0.35664 0.49588,-0.77272 0.54547,-0.92727 0.0868,-0.35663 -0.24794,-0.71328 -0.8058,-0.80838 l -0.43389,-0.0832 0.0496,-1.90207 c 0.0372,-1.3909 0.0124,-1.91397 -0.0992,-1.94964 -0.0744,-0.0238 -0.21075,0.0595 -0.28513,0.2021 z m 0.92977,4.39856 c 0.0868,0.14265 -0.54546,1.06992 -0.74381,1.06992 -0.18596,0 -0.4339,-0.51118 -0.4339,-0.8916 0,-0.27343 0.0496,-0.2972 0.54546,-0.2972 0.30992,0 0.59505,0.0475 0.63225,0.11888 z"
       id="path7665" />
    <path
       style="stroke-width:0.01213978"
       inkscape:connector-curvature="0"
       d="m 64.315436,128.41459 c -1.152911,0.0713 -1.326468,0.13077 -1.276879,0.43986 0.03719,0.23775 0.09917,0.26153 0.842987,0.24964 0.793402,-0.0238 17.479616,0.16644 21.409431,0.22588 1.971105,0.0356 2.008296,0.0356 1.983501,-0.2021 -0.0124,-0.14266 -0.136365,-0.2972 -0.272731,-0.34475 -0.136366,-0.0595 -3.533113,-0.14266 -7.562103,-0.2021 -4.016592,-0.0594 -8.900966,-0.13076 -10.847279,-0.15455 -1.946311,-0.0356 -3.86783,-0.0356 -4.276927,-0.0119 z"
       id="path7667" />
    <path
       style="stroke-width:0.01213978"
       inkscape:connector-curvature="0"
       d="m 75.051143,130.2929 c -0.09918,0.11887 -0.136366,0.66572 -0.123969,1.65242 0,0.82027 -0.0248,1.55733 -0.07438,1.62866 -0.06198,0.0951 -0.247938,0.11887 -0.495876,0.0832 -0.247937,-0.0356 -0.508272,0 -0.644638,0.0951 -0.210747,0.15454 -0.210747,0.16643 0.03719,0.43986 0.136366,0.15454 0.309922,0.40419 0.3967,0.57062 0.07438,0.16643 0.384304,0.66572 0.681829,1.12936 0.632241,0.96293 0.966958,1.0937 1.289277,0.48741 0.111572,-0.2021 0.334716,-0.52308 0.495875,-0.71329 0.458685,-0.53495 0.781005,-1.21257 0.781005,-1.6762 v -0.41608 H 76.52637 75.658586 v -1.5811 c 0,-1.06993 -0.04958,-1.62866 -0.148762,-1.72377 -0.19835,-0.1902 -0.285128,-0.17831 -0.458685,0.0238 z m 1.661183,3.99436 c 0.07438,0.10699 -0.904973,1.42656 -1.053736,1.42656 -0.08678,0 -0.867782,-1.16503 -0.867782,-1.29579 0,-0.107 0.309922,-0.15455 1.512421,-0.22587 0.185953,-0.0119 0.371907,0.0238 0.409097,0.0951 z"
       id="path7669" />
    <path
       style="stroke-width:0.01213978"
       inkscape:connector-curvature="0"
       d="m 126.44865,137.10471 c 0.0372,1.6881 0.11157,3.11466 0.17355,3.1741 0.0744,0.0713 0.17356,0.0595 0.26034,-0.0238 0.11157,-0.107 0.16117,-0.84406 0.16117,-2.67481 v -2.52025 l 0.30991,0.0356 c 0.17356,0.0238 3.74387,0.0951 7.93401,0.16643 6.01249,0.0951 7.66128,0.15454 7.81004,0.27343 0.0992,0.0951 0.54546,0.1902 0.99175,0.23776 2.19425,0.20209 3.83065,0.54684 4.36371,0.91537 0.34711,0.22587 0.34711,0.23776 0.34711,1.56922 0,0.73705 -0.0372,1.91396 -0.0868,2.60347 l -0.0744,1.27202 h -0.94217 c -0.52067,0 -1.88433,-0.14266 -3.04964,-0.29721 -2.02069,-0.2853 -4.71081,-0.4874 -10.47537,-0.77271 -1.46283,-0.0832 -3.04963,-0.17833 -3.53311,-0.23777 -0.47108,-0.0594 -1.40085,-0.15454 -2.04549,-0.23775 -1.28927,-0.14266 -2.16946,-0.0476 -2.16946,0.23775 0,0.13077 0.16117,0.19021 0.55786,0.21399 0.30993,0.0119 1.58681,0.13077 2.85129,0.26153 1.26449,0.13077 3.49593,0.28532 4.95876,0.35665 6.40919,0.2853 8.30591,0.42796 9.75635,0.71328 0.91737,0.1902 4.26453,0.35663 4.51247,0.23776 0.17356,-0.0951 0.21074,-0.43986 0.26033,-2.75802 0.0744,-3.13843 0.0496,-3.2692 -0.88018,-3.72095 -0.74381,-0.35663 -1.95871,-0.65383 -2.71491,-0.65383 -0.48349,0 -0.53307,-0.0238 -0.45869,-0.23776 0.0496,-0.14266 0.0124,-0.26154 -0.0868,-0.2972 -0.0868,-0.0238 -3.96701,-0.107 -8.61585,-0.17833 -4.64883,-0.0713 -8.71501,-0.15454 -9.02494,-0.20209 -0.43389,-0.0475 -0.55786,-0.11888 -0.55786,-0.28531 0,-0.15455 -0.0868,-0.22587 -0.29752,-0.22587 h -0.29752 z"
       id="path7671" />
    <path
       style="stroke-width:0.01213978"
       inkscape:connector-curvature="0"
       d="m 135.70913,137.18793 c -0.53307,0.22587 -1.02895,0.87971 -1.06614,1.40278 -0.0496,0.80839 0.61984,1.36712 1.80995,1.486 0.64464,0.0595 1.38845,-0.11888 1.26448,-0.30909 -0.0372,-0.0595 -0.3967,-0.14265 -0.80579,-0.1902 -0.74381,-0.0832 -1.45044,-0.40419 -1.57441,-0.71328 -0.22314,-0.53496 0.58265,-1.30769 1.26448,-1.22446 0.4091,0.0475 0.71902,-0.32098 0.4215,-0.49931 -0.26034,-0.16643 -0.86778,-0.14265 -1.31407,0.0475 z"
       id="path7673" />
    <path
       style="stroke-width:0.01213978"
       inkscape:connector-curvature="0"
       d="m 135.47359,142.37109 c -0.0868,0.13077 0.0247,3.10277 0.13636,4.00626 l 0.062,0.49929 -0.47109,0.0356 -0.47108,0.0356 -0.0372,0.65384 c -0.0496,1.15314 0.64464,1.83076 1.41324,1.35524 0.44629,-0.28531 1.04135,-1.0937 1.04135,-1.41467 0,-0.32098 -0.22315,-0.53496 -0.57026,-0.53496 -0.16117,0 -0.30993,-0.0356 -0.34712,-0.0951 -0.0248,-0.0475 -0.0992,-1.04614 -0.13637,-2.22306 -0.0496,-1.17691 -0.14876,-2.21117 -0.22314,-2.29438 -0.14876,-0.17832 -0.29753,-0.19021 -0.3967,-0.0238 z m 0.69423,5.11185 c 0.60744,0 0.61984,0.17831 0.062,0.70138 -0.50828,0.47552 -0.8306,0.45175 -0.97936,-0.0713 -0.14876,-0.46362 -0.0372,-0.79649 0.23554,-0.70138 0.11157,0.0356 0.4091,0.0713 0.68183,0.0713 z"
       id="path7675" />
  </g>
</svg>
