<?xml version="1.0" encoding="UTF-8" standalone="no"?>
<!-- Created with Inkscape (http://www.inkscape.org/) -->

<svg
   xmlns:dc="http://purl.org/dc/elements/1.1/"
   xmlns:cc="http://creativecommons.org/ns#"
   xmlns:rdf="http://www.w3.org/1999/02/22-rdf-syntax-ns#"
   xmlns:svg="http://www.w3.org/2000/svg"
   xmlns="http://www.w3.org/2000/svg"
   xmlns:sodipodi="http://sodipodi.sourceforge.net/DTD/sodipodi-0.dtd"
   xmlns:inkscape="http://www.inkscape.org/namespaces/inkscape"
   width="323.26617mm"
   height="44.834904mm"
   viewBox="0 0 323.26617 44.834904"
   version="1.1"
   id="svg10417"
   inkscape:version="0.92.5 (2060ec1f9f, 2020-04-08)"
   sodipodi:docname="state_change.svg">
  <defs
     id="defs10411" />
  <sodipodi:namedview
     id="base"
     pagecolor="#ffffff"
     bordercolor="#666666"
     borderopacity="1.0"
     inkscape:pageopacity="0.0"
     inkscape:pageshadow="2"
     inkscape:zoom="0.35"
     inkscape:cx="683.97186"
     inkscape:cy="-160.18817"
     inkscape:document-units="mm"
     inkscape:current-layer="layer1"
     showgrid="false"
     fit-margin-top="0"
     fit-margin-left="0"
     fit-margin-right="0"
     fit-margin-bottom="0"
     inkscape:window-width="1920"
     inkscape:window-height="1080"
     inkscape:window-x="1920"
     inkscape:window-y="0"
     inkscape:window-maximized="0" />
  <metadata
     id="metadata10414">
    <rdf:RDF>
      <cc:Work
         rdf:about="">
        <dc:format>image/svg+xml</dc:format>
        <dc:type
           rdf:resource="http://purl.org/dc/dcmitype/StillImage" />
        <dc:title></dc:title>
      </cc:Work>
    </rdf:RDF>
  </metadata>
  <g
     inkscape:label="Layer 1"
     inkscape:groupmode="layer"
     id="layer1"
     transform="translate(47.70127,-66.503911)">
    <g
       id="g11083"
       transform="matrix(0.42339506,-0.00981908,0.01145155,0.3630383,64.638459,57.753342)">
      <path
         id="path9699"
         d="m -27.768888,23.797138 c -0.14111,0.246945 -0.35278,2.046112 -0.45861,3.986389 -0.17639,3.386667 -0.21167,3.527778 -1.05833,3.774723 -1.83445,0.493888 -5.46806,0.881944 -5.78556,0.599722 -0.17639,-0.176389 -0.0706,-1.481667 0.3175,-3.210278 1.05833,-5.044722 1.05833,-4.938889 0.3175,-4.797778 -1.09361,0.211667 -1.83444,3.563056 -2.2225,10.089444 -0.42333,7.690556 -0.45861,7.196667 0.24694,7.055556 0.49389,-0.105834 0.59973,-0.635 0.70556,-3.351389 l 0.10583,-3.245556 1.83445,-0.670277 c 1.02305,-0.388056 2.57528,-0.811389 3.52778,-0.917222 l 1.65805,-0.246945 v 4.374444 c 0,4.409722 0.10583,4.903611 0.81139,4.621389 0.28222,-0.105833 0.42333,-1.516944 0.38806,-4.445 0,-2.398889 0.10583,-5.044722 0.24694,-5.926666 0.14111,-0.881944 0.35278,-3.069167 0.45861,-4.868333 0.17639,-2.681111 0.10583,-3.245556 -0.3175,-3.245556 -0.24694,0 -0.59972,0.211667 -0.77611,0.423333 z"
         inkscape:connector-curvature="0"
         style="stroke-width:0.03527778" />
      <path
         id="path9701"
         d="m -22.124448,27.642416 c -1.76388,0.529167 -1.51694,1.375834 0.38806,1.375834 h 1.5875 l -0.14111,5.009444 c -0.14111,5.573888 -0.21167,5.679722 -2.61056,5.291666 -0.98777,-0.141111 -1.16416,-0.07056 -1.02305,0.493889 0.0705,0.352778 0.59972,0.881944 1.16416,1.164167 0.9525,0.458611 1.37584,0.423333 4.02167,-0.282223 3.66889,-0.9525 5.32695,-1.658055 5.32695,-2.187222 0,-0.282222 -0.77612,-0.3175 -2.82223,-0.141111 l -2.82222,0.246945 v -1.869723 c 0,-1.058333 0.10583,-3.210277 0.24695,-4.833055 l 0.21166,-2.892777 1.34056,-0.352778 c 0.77611,-0.211667 1.37583,-0.529167 1.37583,-0.670278 0,-0.740833 -4.1275,-0.9525 -6.24417,-0.352778 z"
         inkscape:connector-curvature="0"
         style="stroke-width:0.03527778" />
      <path
         id="path9703"
         d="m 7.8616521,30.076583 c 0.21167,2.892778 0,3.104444 -2.8222,3.280833 -1.86973,0.07055 -1.79917,0.176389 -1.37583,-2.504722 0.24693,-1.340556 0.21166,-1.481667 -0.45863,-1.481667 -0.38804,0 -0.7761,0.141111 -0.91721,0.3175 -0.42333,0.705556 -0.52916,8.043333 -0.14113,10.018889 0.42334,2.081388 0.88197,2.610555 1.9403,2.2225 0.52917,-0.211667 0.52917,-0.282223 -0.0353,-0.917223 -0.38803,-0.423333 -0.67026,-1.481666 -0.7761,-2.928055 l -0.21166,-2.293056 1.19943,-0.352777 c 0.6703,-0.211667 1.7639,-0.493889 2.46946,-0.599723 l 1.27,-0.246944 0.24694,2.434167 c 0.35277,3.351388 0.84667,5.044722 1.48167,5.044722 0.3527599,0 0.4938899,-0.211667 0.3527599,-0.635 -0.4233299,-1.516945 -0.9877599,-9.489722 -0.7760999,-11.077222 0.24694,-1.834444 -0.10583,-2.751667 -1.0936,-2.751667 -0.42333,0 -0.4939,0.458612 -0.3528,2.469445 z"
         inkscape:connector-curvature="0"
         style="stroke-width:0.03527778" />
      <path
         id="path9705"
         d="m -205.92166,28.524361 c -0.10583,0.3175 -0.21167,5.326944 -0.24694,11.183055 l -0.0353,10.653889 h 2.82222 c 2.57528,0 2.82222,-0.07056 2.82222,-0.705556 0,-0.599722 -0.35278,-0.740834 -2.43416,-1.023056 l -2.43417,-0.3175 0.24694,-7.796389 c 0.14111,-4.268611 0.3175,-8.854721 0.45861,-10.195277 0.17639,-2.046111 0.14112,-2.363611 -0.38805,-2.363611 -0.3175,0 -0.67028,0.246945 -0.81139,0.564445 z"
         inkscape:connector-curvature="0"
         style="stroke-width:0.03527778" />
      <path
         id="path9707"
         d="m -10.200558,30.323527 c -1.905,1.975556 -2.50472,3.598333 -2.15194,5.856111 0.49389,3.421944 3.4572201,5.468055 6.1736101,4.339166 1.5875,-0.670277 2.18722,-1.904999 1.69333,-3.563055 -0.38805,-1.199444 -0.38805,-1.199444 0.91723,-1.411111 0.70555,-0.141111 1.69332,-0.388056 2.25778,-0.599722 0.81137001,-0.3175 0.88194001,-0.458611 0.52917001,-0.917222 -0.35280001,-0.388056 -0.95250001,-0.458612 -2.96334001,-0.3175 -2.99861,0.282222 -4.37445,0.740833 -4.37445,1.481666 0,0.3175 0.49389,0.740833 1.05834,0.9525 1.02305,0.352778 1.72861,1.622778 1.27,2.328333 -0.3175,0.564445 -2.29306,0.776111 -3.13973,0.388056 -1.9402701,-0.881944 -2.6105501,-4.092222 -1.3052701,-6.244166 0.8466601,-1.375833 2.6458301,-2.54 3.9863801,-2.54 0.52917,0 0.9525,-0.141111 0.9525,-0.282222 0,-0.635 -0.91722,-1.128889 -2.08138,-1.128889 -0.98778,0 -1.51695,0.3175 -2.8222301,1.658055 z"
         inkscape:connector-curvature="0"
         style="stroke-width:0.03527778" />
      <path
         id="path9709"
         d="m -171.34944,38.261027 c -0.21167,0.246944 -1.34055,2.469444 -2.50472,4.938888 -1.94028,4.056945 -2.25778,4.515556 -3.06917,4.515556 -0.635,0 -0.98778,-0.246944 -1.23472,-0.917222 -0.21167,-0.493889 -0.28222,-1.058334 -0.14111,-1.234722 0.10583,-0.176389 -0.17639,-0.3175 -0.635,-0.3175 -0.70556,0 -0.91722,0.282222 -1.27,1.5875 -0.42333,1.658055 -1.30528,2.116666 -2.11667,1.128888 -0.67027,-0.811388 -1.48166,-3.563055 -1.48166,-5.115277 0,-1.27 -0.10584,-1.516945 -0.59973,-1.411111 -1.09361,0.211666 -0.84666,3.880555 0.35278,6.385277 0.56445,1.093611 1.23472,2.257778 1.51695,2.540001 0.81139,0.77611 2.29305,0.670277 2.50472,-0.17639 0.14111,-0.493888 0.49389,-0.705555 1.19944,-0.705555 0.52917,0 1.09361,0.141111 1.19945,0.352778 0.10583,0.176387 0.59972,0.352777 1.05833,0.352777 0.74083,0 1.09361,-0.458611 2.25778,-2.928055 1.41111,-2.8575 3.45722,-7.62 3.81,-8.819444 0.21166,-0.705556 -0.35278,-0.811389 -0.84667,-0.176389 z"
         inkscape:connector-curvature="0"
         style="stroke-width:0.03527778" />
      <path
         id="path9711"
         d="m -193.39805,40.518804 c -0.56444,0.282223 -0.98778,0.635 -0.98778,0.776112 0,0.141111 -0.38805,0.670277 -0.84666,1.164166 -2.64584,2.8575 -2.61056,7.055556 0.10583,9.172223 2.11667,1.693333 6.13833,0.03528 7.51417,-3.069167 1.83444,-4.198056 0.98777,-7.090834 -2.32834,-8.043334 -2.29305,-0.670277 -2.25777,-0.670277 -3.45722,0 z m 2.75167,1.658056 c 0.14111,0.141111 0.59972,0.246944 1.02305,0.246944 1.16417,0 1.72861,0.917223 1.72861,2.645834 -0.0705,4.056944 -4.69194,7.055554 -7.02027,4.550833 -1.02306,-1.093611 -1.16417,-3.139722 -0.35278,-4.727222 1.05833,-2.010834 3.73944,-3.598333 4.62139,-2.716389 z"
         inkscape:connector-curvature="0"
         style="stroke-width:0.03527778" />
      <path
         id="path9713"
         d="m 117.57555,43.693804 c -2.54,1.905 -5.67973,5.3975 -6.6675,7.373055 -0.91723,1.905 -1.1289,4.93889 -0.4939,6.20889 0.84667,1.516943 4.1275,2.2225 6.17363,1.305276 1.72861,-0.77611 1.02304,-1.164166 -2.61056,-1.446387 -2.2225,-0.176389 -2.8575,-0.776113 -2.8575,-2.716389 0,-1.5875 1.37583,-4.268611 2.92806,-5.785556 2.29304,-2.2225 4.93887,-4.092222 6.27944,-4.445 1.55223,-0.423333 1.65806,-0.599722 0.7761,-1.27 -0.98777,-0.740833 -1.69333,-0.599722 -3.52777,0.776111 z"
         inkscape:connector-curvature="0"
         style="stroke-width:0.03527778" />
      <path
         id="path9715"
         d="m 123.32582,47.25686 c -0.35277,1.093611 -1.27,7.619999 -1.27,8.960555 0,1.41111 0.74083,2.293057 1.5875,1.940277 0.42333,-0.14111 0.45863,-0.352777 0.21167,-0.811387 -0.42334,-0.81139 -0.635,-3.52778 -0.28221,-3.84528 0.35277,-0.352776 4.445,-0.846666 5.08,-0.59972 0.35277,0.14111 0.42334,0.59972 0.24694,1.86972 -0.1411,0.98778 -0.0706,1.975557 0.1764,2.434167 0.635,1.199446 1.02303,0.881946 0.84666,-0.77611 -0.0706,-0.81139 0.0705,-3.069167 0.35277,-5.009444 0.56444,-3.704167 0.52917,-4.056945 -0.3175,-4.056945 -0.35277,0 -0.4939,0.423334 -0.4939,1.375834 0,1.975555 -0.67026,2.504722 -3.175,2.504722 -1.12887,0 -2.15193,-0.141111 -2.25776,-0.282224 -0.10584,-0.176387 0.0353,-1.164165 0.3175,-2.222498 0.28223,-1.058334 0.52916,-1.940278 0.52916,-2.010834 0,-0.03528 -0.3175,-0.07056 -0.67027,-0.07056 -0.38806,0 -0.77613,0.282222 -0.88196,0.599722 z"
         inkscape:connector-curvature="0"
         style="stroke-width:0.03527778" />
      <path
         id="path9717"
         d="m 135.28499,48.174082 c -0.28221,0.458611 -0.91721,1.940277 -1.37584,3.31611 -0.4586,1.375833 -1.19943,3.139723 -1.65803,3.915833 -1.02307,1.799167 -0.70557,2.2225 0.7761,0.98778 0.88193,-0.776113 1.4111,-0.917223 2.57527,-0.846667 1.34056,0.105834 1.4464,0.176387 1.37583,1.093611 -0.0353,0.77611 0.0706,0.9525 0.52917,0.881943 0.35279,-0.07055 0.56446,-0.423333 0.52916,-0.811387 -0.0353,-0.388056 -0.24693,-2.54 -0.49387,-4.7625 -0.21166,-2.222501 -0.45863,-4.162778 -0.56446,-4.339167 -0.3175,-0.493889 -1.16417,-0.246945 -1.69333,0.564444 z m 1.16416,3.66889 c -0.10583,1.72861 -0.635,2.2225 -1.8697,1.72861 -0.42333,-0.14111 -0.42333,-0.388057 0.0353,-1.516944 1.02306,-2.398889 1.97556,-2.504723 1.83443,-0.211666 z"
         inkscape:connector-curvature="0"
         style="stroke-width:0.03527778" />
      <path
         id="path9719"
         d="m -15.033608,47.997693 c -0.21167,0.141111 -0.91722,1.27 -1.55222,2.539999 -1.76389,3.457223 -3.77473,6.279446 -5.22112,7.231946 -2.89277,1.869721 -4.86833,2.116667 -17.35666,2.116667 h -11.46528 l -1.62278,1.164167 c -1.86972,1.340553 -2.68111,2.328333 -3.98639,4.938887 -1.02305,2.010833 -1.16416,2.892779 -0.45861,2.892779 0.24695,0 0.84667,-0.881946 1.27,-1.940279 0.84667,-2.04611 2.89278,-4.409721 4.51556,-5.22111 0.81139,-0.388057 2.61055,-0.423334 9.45444,-0.211667 17.18028,0.529167 21.09611,-0.77611 24.87084,-8.43139 1.51694,-3.104443 2.32833,-3.351388 3.31611,-0.91722 1.41111,3.386666 5.1152701,5.99722 10.0541601,7.055553 3.28084001,0.67028 7.47888,0.740834 18.2738799,0.35278 9.94833,-0.35278 9.77196,-0.388056 11.25363,2.892777 0.49387,1.09361 0.9525,2.187223 0.98777,2.434167 0.10583,0.670276 0.4939,0.917223 1.05833,0.705556 0.4586,-0.17639 0.42334,-0.423333 -0.10583,-1.905 -1.97557,-5.291667 -2.82223,-5.926667 -7.97277,-5.926667 -1.9403,0.03528 -7.09083,0.176387 -11.4652999,0.3175 -11.2536,0.423334 -15.02832,-0.246946 -18.34443,-3.210279 -1.7991701,-1.622777 -3.8805501,-5.079999 -3.8805501,-6.455832 0,-0.705556 -0.84667,-0.9525 -1.62278,-0.423334 z"
         inkscape:connector-curvature="0"
         style="stroke-width:0.03527778" />
      <path
         id="path9721"
         d="m 149.36082,47.997693 c -0.21167,0.141111 -0.74083,1.164167 -1.16417,2.293056 -1.27,3.421943 -1.76387,4.198056 -2.61053,4.056943 -0.9525,-0.14111 -1.6228,-1.446387 -2.11667,-4.198054 -0.24696,-1.164167 -0.56446,-2.046111 -0.77613,-1.975556 -0.17637,0.07056 -0.52917,1.164167 -0.7761,2.434167 -0.21167,1.27 -0.67027,2.928056 -0.9525,3.63361 -0.3175,0.740833 -0.56444,1.552223 -0.56444,1.799166 0,0.81139 0.98777,0.141113 1.23471,-0.846666 0.38806,-1.552221 1.94029,-2.928054 1.94029,-1.693334 0,0.9525 1.83444,3.739447 2.43417,3.739447 0.635,0 1.5522,-1.94028 2.6811,-5.644447 0.3175,-1.058333 0.74084,-2.293054 0.9525,-2.716387 0.42334,-0.881945 0.3175,-1.27 -0.28223,-0.881945 z"
         inkscape:connector-curvature="0"
         style="stroke-width:0.03527778" />
      <path
         id="path9723"
         d="m 152.11249,49.408804 c -2.43417,2.610555 -2.39887,8.890001 0.0353,8.890001 1.16417,0 3.10444,-1.30528 2.99861,-2.046113 -0.0706,-0.423333 0.17639,-0.635 0.9525,-0.705554 1.86973,-0.141113 3.73943,-0.811389 3.59833,-1.234723 -0.1411,-0.423333 -2.50473,-0.881943 -5.08,-0.917223 -1.65807,-0.03528 -1.905,0.35278 -0.91723,1.44639 0.52916,0.599723 0.52916,0.740833 0.10583,1.023056 -0.2822,0.176387 -0.9172,0.282221 -1.4111,0.246944 -0.7761,-0.105833 -0.88194,-0.3175 -0.98777,-1.5875 -0.14113,-1.834444 0.67027,-3.457223 2.0461,-4.162777 1.16417,-0.599723 1.27,-0.881945 0.635,-1.516945 -0.635,-0.635 -0.9525,-0.529167 -1.97556,0.564444 z"
         inkscape:connector-curvature="0"
         style="stroke-width:0.03527778" />
      <path
         id="path9725"
         d="m 163.54249,49.444082 c -0.1411,0.211667 0,1.552223 0.3175,2.99861 0.28223,1.44639 0.52916,3.386667 0.52916,4.268613 0,2.151944 0.45863,2.892777 2.04613,3.351387 1.5875,0.423333 6.06777,0.458613 6.73804,0.03528 0.9525,-0.599723 0,-0.98778 -2.9986,-1.234723 -3.77473,-0.3175 -4.72723,-0.705557 -4.72723,-1.975557 0,-1.164167 0.635,-1.41111 3.52779,-1.41111 2.43417,0 3.52777,-0.282223 3.52777,-0.917223 0,-0.635 -1.79916,-0.917221 -4.79777,-0.77611 l -2.43416,0.105833 v -1.234723 -1.234721 l 3.24553,-0.176389 c 1.79917,-0.105834 3.42197,-0.352777 3.6689,-0.599724 0.52917,-0.529166 -0.28223,-0.705553 -4.2686,-0.917221 -1.65806,-0.105833 -3.24556,-0.282222 -3.56306,-0.423333 -0.35277,-0.105833 -0.70557,-0.07056 -0.8114,0.141111 z"
         inkscape:connector-curvature="0"
         style="stroke-width:0.03527778" />
      <path
         id="path9727"
         d="m 273.85609,53.007138 c -1.4111,0.846667 -1.79917,2.116667 -1.02304,3.245554 0.3175,0.423333 0.56444,1.481667 0.56444,2.363613 0,1.940277 0.74083,5.67972 1.1289,5.67972 0.3175,0 0.35276,-0.246943 0.2822,-2.928053 -0.0353,-2.08139 -0.42333,-4.656667 -0.88194,-6.138334 -0.21166,-0.670279 -0.0706,-0.811389 1.1289,-1.128889 1.7286,-0.49389 4.23334,-0.49389 4.55084,0 0.10583,0.211666 -0.3528,0.9525 -1.02307,1.658056 -1.86973,1.940277 -2.15193,2.99861 -1.34056,4.7625 0.35279,0.811387 1.30529,2.151944 2.08139,2.963333 1.37584,1.446387 1.51694,1.516944 3.52777,1.516944 1.19947,0 2.54,-0.246944 3.10447,-0.529167 1.19943,-0.635 2.6811,-0.670277 3.21026,-0.14111 0.70557,0.705554 2.11667,0.03528 2.7164,-1.27 0.7761,-1.62278 0.4586,-2.57528 -1.05833,-3.21028 -1.34057,-0.564443 -1.51696,-1.058333 -0.4939,-1.375833 1.02307,-0.3175 0.88194,-1.23472 -0.1764,-1.23472 -0.635,0 -0.98777,0.246943 -1.27,0.9525 -0.52916,1.41111 -0.2822,1.905 1.37584,2.751666 l 1.55223,0.776111 -0.98777,0.77611 c -0.6703,0.529166 -1.23473,0.705556 -1.72863,0.529166 -0.38804,-0.14111 -1.51694,-0.3175 -2.5047,-0.388053 -1.5875,-0.141113 -1.79917,-0.246947 -1.65807,-0.846667 0.24694,-0.846667 -0.1764,-2.434167 -0.59973,-2.434167 -0.21167,0 -0.35277,0.776111 -0.35277,1.763887 0,1.340557 -0.1411,1.834447 -0.67027,2.116667 -1.69333,0.881946 -2.92806,0.17639 -4.90363,-2.68111 -0.9525,-1.375833 -0.81137,-2.04611 0.59973,-3.527777 1.30527,-1.340556 1.94027,-3.84528 1.05834,-4.409723 -0.9525,-0.599723 -5.00944,-0.352777 -6.2089,0.388056 z"
         inkscape:connector-curvature="0"
         style="stroke-width:0.03527778" />
      <path
         id="path9729"
         d="m 294.56415,56.711305 c -0.24693,0.28222 -0.3175,0.77611 -0.17639,1.128887 0.14113,0.35278 0.28223,1.693333 0.3175,2.998613 0.0353,2.116667 -0.0353,2.398887 -0.74084,2.716387 -0.9525,0.458613 -1.05833,1.340557 -0.17637,1.5875 0.91721,0.282223 4.1275,-0.670277 4.1275,-1.23472 0,-0.246947 -0.56446,-0.599723 -1.23473,-0.776113 l -1.27,-0.282221 0.21167,-1.975556 c 0.24693,-2.116667 0.88193,-2.928057 2.3636,-2.928057 1.02306,0 1.02306,-0.493887 0.0353,-1.199443 -0.9878,-0.705557 -2.8928,-0.740833 -3.45724,-0.03528 z"
         inkscape:connector-curvature="0"
         style="stroke-width:0.03527778" />
      <path
         id="path9731"
         d="m 306.02942,59.004359 c -1.76387,2.928056 -2.54,2.892779 -3.70416,-0.14111 -0.28221,-0.776111 -0.67027,-1.411111 -0.88194,-1.411111 -0.3175,-0.03528 -1.16417,3.951111 -1.19943,5.715 -0.0353,0.987777 0.56443,0.705554 1.02303,-0.493889 0.42334,-1.093611 1.23473,-1.093611 2.2225,0.03528 1.02307,1.199447 1.51697,0.81139 3.38667,-2.751666 1.65806,-3.139721 1.6228,-3.069167 0.9525,-3.069167 -0.2822,0 -1.0936,0.9525 -1.79917,2.116667 z"
         inkscape:connector-curvature="0"
         style="stroke-width:0.03527778" />
      <path
         id="path9733"
         d="m 282.56972,57.699082 c -1.27,0.635 -1.37583,1.658056 -0.1764,1.658056 1.4111,0 4.445,-1.093613 4.3039,-1.552223 -0.1764,-0.564443 -3.10446,-0.635 -4.1275,-0.105833 z"
         inkscape:connector-curvature="0"
         style="stroke-width:0.03527778" />
      <path
         id="path9735"
         d="m 310.65082,57.981305 c -2.18723,1.693333 -2.6811,5.009444 -1.02306,6.738054 0.52916,0.529166 1.16416,0.987779 1.41113,0.987779 0.98776,0 2.54,-1.058333 2.64583,-1.834446 0.0705,-0.564443 0.56443,-0.91722 2.15193,-1.446387 1.19944,-0.388056 2.01084,-0.846667 2.01084,-1.164167 0,-0.811389 -0.9525,-0.987779 -2.9986,-0.529166 -2.0814,0.45861 -3.0339,1.199443 -2.36363,1.86972 0.70556,0.705557 0.45863,0.98778 -0.91721,0.98778 -1.51696,0 -2.18723,-0.49389 -2.18723,-1.658057 0,-0.846666 1.905,-3.280833 2.61057,-3.280833 0.21166,0 0.635,-0.17639 0.9172,-0.352777 0.45863,-0.3175 0.45863,-0.388056 0,-0.705556 -0.7761,-0.49389 -1.19944,-0.423334 -2.25777,0.388056 z"
         inkscape:connector-curvature="0"
         style="stroke-width:0.03527778" />
      <path
         id="path9737"
         d="m 426.89109,61.650192 -2.96333,0.776113 -0.0353,5.36222 c -0.0353,4.656667 0.0353,5.326947 0.52916,5.326947 0.42334,0 0.52917,-0.388057 0.52917,-1.76389 -0.0353,-1.905 0.24694,-2.187223 2.96333,-2.610557 1.34057,-0.211666 2.82224,-1.09361 2.82224,-1.658053 0,-0.423334 -2.54,-0.423334 -3.70417,0.03528 -0.52917,0.211666 -1.3053,0.246943 -1.7639,0.14111 -0.74083,-0.176387 -0.8114,-0.352777 -0.635,-1.481667 0.24694,-1.516943 0.38807,-1.658054 2.75167,-2.36361 1.94027,-0.599723 3.52777,-1.72861 3.175,-2.293057 -0.24694,-0.423333 -0.0353,-0.45861 -3.6689,0.529167 z"
         inkscape:connector-curvature="0"
         style="stroke-width:0.03527778" />
      <path
         id="path9739"
         d="m -258.8736,62.214638 c -6.17361,0.246944 -8.18445,0.670277 -8.18445,1.658054 0,0.423333 0.38806,0.49389 2.39889,0.282223 5.57389,-0.529166 16.1925,-0.670277 22.36611,-0.246943 3.56306,0.246943 7.40834,0.493887 8.5725,0.564443 2.54,0.14111 4.05695,-0.105833 4.05695,-0.705556 0,-0.599721 -1.05834,-0.811387 -5.82084,-1.058334 -2.11666,-0.105833 -5.92666,-0.352776 -8.46666,-0.564443 -4.97417,-0.352777 -5.75028,-0.352777 -14.9225,0.07056 z"
         inkscape:connector-curvature="0"
         style="stroke-width:0.03527778" />
      <path
         id="path9741"
         d="m 274.45582,65.354359 c 0,0.17639 0.24694,0.352779 0.56444,0.352779 0.28223,0 0.42333,-0.176389 0.3175,-0.352779 -0.10584,-0.211667 -0.35277,-0.352777 -0.56444,-0.352777 -0.1764,0 -0.3175,0.14111 -0.3175,0.352777 z"
         inkscape:connector-curvature="0"
         style="stroke-width:0.03527778" />
      <path
         id="path9743"
         d="m 433.09999,67.365192 c -0.4939,1.12889 -1.05834,2.645833 -1.23473,3.35139 -0.3175,1.199443 -0.28221,1.340556 0.3175,1.340556 0.35279,0 0.67029,-0.246946 0.67029,-0.529166 0,-0.282223 0.3175,-0.67028 0.67027,-0.881947 0.88194,-0.45861 3.45723,-0.45861 3.73944,0 0.35279,0.599724 0.88196,0.388057 0.88196,-0.3175 0,-0.352776 -0.24696,-0.740833 -0.52917,-0.881943 -0.28223,-0.105833 -0.52916,-0.45861 -0.52916,-0.77611 0,-0.3175 -0.3528,-1.199447 -0.77613,-1.94028 -1.16417,-2.081387 -2.08137,-1.86972 -3.21027,0.635 z m 2.57527,0.458613 c 0,0.176387 -0.38804,0.352777 -0.88194,0.352777 -0.4939,0 -0.88193,-0.17639 -0.88193,-0.352777 0,-0.211667 0.38803,-0.35278 0.88193,-0.35278 0.4939,0 0.88194,0.141113 0.88194,0.35278 z"
         inkscape:connector-curvature="0"
         style="stroke-width:0.03527778" />
      <path
         id="path9745"
         d="m -231.5686,66.130472 c -0.0706,0.246943 -0.24695,1.799166 -0.35278,3.45722 -0.10583,1.658057 -0.35278,4.092223 -0.52917,5.468057 -1.37583,9.242776 -1.55222,11.853333 -1.62278,25.752781 -0.0705,7.76111 -0.14111,14.81666 -0.17638,15.69861 -0.0706,2.32833 -0.0353,2.82222 0.3175,2.82222 0.49388,0 0.81138,-8.46667 0.77611,-20.813891 -0.0353,-7.090833 0.0706,-12.594167 0.3175,-13.758333 0.21166,-1.058334 0.52916,-3.457221 0.74083,-5.291667 0.21167,-1.834444 0.59972,-4.691944 0.88194,-6.31472 0.56445,-3.421944 0.635,-6.949724 0.14112,-7.267224 -0.21167,-0.105833 -0.42334,0 -0.49389,0.246947 z"
         inkscape:connector-curvature="0"
         style="stroke-width:0.03527778" />
      <path
         id="path9747"
         d="m 439.97915,66.130472 c -0.35276,0.45861 -0.59973,1.516943 -0.9525,3.880553 -0.17639,1.058334 -0.0706,1.375834 0.59974,1.834447 0.98776,0.705553 1.94026,0.705553 3.56303,0.03528 1.1289,-0.458611 1.3053,-0.458611 1.79917,0.03528 0.77613,0.776113 2.50473,1.199447 3.63363,0.881947 1.5875,-0.423334 1.2347,-1.234723 -0.59973,-1.44639 -1.4464,-0.17639 -1.5875,-0.282223 -1.69334,-1.199444 -0.0706,-0.564446 0.0353,-1.164166 0.24694,-1.375833 0.42333,-0.423333 0.52917,-1.76389 0.1764,-2.116667 -0.52917,-0.529166 -1.19944,0.352777 -1.55223,2.081387 -0.24694,1.199447 -0.59971,1.905 -0.91721,1.94028 -0.28223,0 -1.1289,0.03528 -1.905,0.03528 -0.77613,0 -1.55223,-0.03528 -1.7639,-0.03528 -0.49389,-0.03528 -0.42333,-1.340556 0.1764,-3.316113 0.38804,-1.340554 0.42334,-1.658054 0.0353,-1.658054 -0.28223,0 -0.635,0.211667 -0.84667,0.423334 z"
         inkscape:connector-curvature="0"
         style="stroke-width:0.03527778" />
      <path
         id="path9749"
         d="m 451.12692,66.765472 c -0.88193,0.529166 -0.7761,0.987777 0.21167,1.446387 0.8114,0.388056 0.84667,0.529166 0.6703,2.39889 -0.10584,1.199443 -0.45863,2.257776 -0.84667,2.716389 -0.70557,0.740834 -0.88196,1.552221 -0.38807,1.552221 1.16417,0 4.3039,-0.881944 4.3039,-1.199444 0,-0.211666 -0.4939,-0.670277 -1.05833,-0.987777 -1.02307,-0.599723 -1.05833,-0.705556 -0.84667,-2.293056 0.10584,-0.917223 0.3175,-1.72861 0.49387,-1.799167 0.14113,-0.03528 0.56447,-0.3175 0.91723,-0.599723 0.4939,-0.352777 0.56444,-0.59972 0.28224,-0.881943 -0.56447,-0.564444 -3.0339,-0.81139 -3.73947,-0.352777 z"
         inkscape:connector-curvature="0"
         style="stroke-width:0.03527778" />
      <path
         id="path9751"
         d="m 464.32082,68.388249 c -1.65806,2.822223 -1.97556,3.104443 -2.78693,2.68111 -0.42334,-0.246944 -0.8114,-0.917221 -0.9525,-1.658054 -0.1764,-0.881946 -0.42334,-1.234723 -0.88197,-1.234723 -0.9172,0 -1.4111,0.705556 -2.01083,2.892777 -0.3175,1.023056 -0.635,2.151946 -0.74083,2.504723 -0.17637,0.529167 -0.0353,0.635 0.635,0.529167 0.52916,-0.07056 0.88196,-0.388057 0.9525,-0.81139 0.10583,-0.811387 1.34056,-1.72861 1.83446,-1.41111 0.21167,0.14111 0.35277,0.599723 0.35277,1.023056 0,0.9525 1.0936,1.41111 1.86973,0.77611 0.2822,-0.211666 0.9525,-1.27 1.51693,-2.328333 0.52917,-1.058333 1.23474,-2.257777 1.5875,-2.645833 0.98777,-1.199444 1.09361,-1.940277 0.28224,-1.940277 -0.45863,0 -1.02307,0.564443 -1.65807,1.622777 z"
         inkscape:connector-curvature="0"
         style="stroke-width:0.03527778" />
      <path
         id="path9753"
         d="m 467.98972,68.211859 c -1.83446,1.44639 -2.54,4.62139 -1.41113,6.244166 0.77613,1.093613 2.5753,1.058334 3.88056,-0.14111 0.52917,-0.529166 1.55224,-1.09361 2.2225,-1.27 2.18724,-0.564443 3.21027,-1.058333 3.21027,-1.552223 0,-0.388054 -0.67027,-0.493887 -2.8222,-0.493887 -2.3989,0 -2.8575,0.105833 -3.0339,0.59972 -0.38806,1.30528 -0.7761,1.693334 -1.69333,1.799167 -0.84667,0.105833 -0.91723,0.03528 -0.91723,-1.27 0,-1.481667 0.88196,-2.610554 2.39889,-3.069167 0.98777,-0.28222 0.91724,-1.375833 -0.1411,-1.516943 -0.38806,-0.07056 -1.16416,0.246943 -1.69333,0.670277 z"
         inkscape:connector-curvature="0"
         style="stroke-width:0.03527778" />
      <path
         id="path9755"
         d="m 108.89722,69.658249 c -0.28223,0.45861 -0.74083,1.27 -0.98777,1.834443 -0.84667,1.869723 -2.43417,2.469446 -7.0203,2.681113 -2.222498,0.105833 -4.374428,0.388054 -4.797758,0.59972 -0.91724,0.529167 -3.31611,3.139724 -3.31611,3.633611 0,0.740833 1.02304,0.3175 1.76387,-0.705554 1.19947,-1.693333 2.46947,-2.151944 6.984998,-2.434167 5.08,-0.3175 6.8439,-1.09361 7.3025,-3.245556 0.3528,-1.5875 1.5875,-1.340554 2.50474,0.49389 0.91723,1.905 2.18723,2.504723 6.73806,3.033889 2.9986,0.388054 3.70417,0.599721 4.37444,1.305277 1.30526,1.375834 1.86973,1.09361 1.02306,-0.529166 -0.8114,-1.622777 -0.91723,-1.693334 -5.85613,-2.328334 -3.42193,-0.45861 -3.88054,-0.599723 -4.9036,-1.5875 -0.635,-0.599723 -1.30527,-1.622777 -1.48167,-2.2225 -0.38806,-1.44639 -1.5875,-1.693333 -2.32833,-0.529166 z"
         inkscape:connector-curvature="0"
         style="stroke-width:0.03527778" />
      <path
         id="path9757"
         d="m 172.92639,71.810192 c -0.21167,0.246946 -0.67027,1.234723 -1.05834,2.187223 -0.4939,1.340557 -0.9525,1.905 -1.905,2.398887 -1.7286,0.846667 -4.6214,0.846667 -6.985,-0.07055 -1.05833,-0.423334 -2.3636,-0.740834 -2.8575,-0.740834 -1.1289,0 -3.73943,1.834444 -4.2686,2.99861 -0.21167,0.49389 -0.52917,0.881944 -0.70556,0.881944 -0.14111,0 -0.28224,0.141113 -0.28224,0.35278 0,0.811387 1.37584,0.28222 2.15197,-0.846667 0.98777,-1.44639 2.8222,-2.504723 3.91583,-2.2225 0.4586,0.105833 1.69333,0.529167 2.75167,0.91722 2.2225,0.81139 3.9511,0.917223 5.6797,0.3175 1.37583,-0.45861 3.175,-1.622777 3.06917,-1.975553 -0.10584,-0.458611 0.4939,-2.010834 1.05833,-2.645834 0.6703,-0.740833 1.48167,-0.77611 1.48167,-0.07056 0,0.81139 2.0814,4.021666 2.89279,4.445 0.45861,0.246943 1.69334,0.282223 3.45721,0.14111 1.51696,-0.14111 3.06916,-0.14111 3.45723,-0.03528 0.38806,0.14111 1.27,1.09361 1.97556,2.151944 0.70554,1.058333 1.51694,1.940279 1.83444,1.940279 0.52917,0 0.4939,-0.105833 -0.0706,-0.987779 -0.35276,-0.529167 -0.81137,-1.27 -0.98776,-1.658054 -1.30527,-2.469446 -1.30527,-2.469446 -5.78557,-2.645833 l -4.1275,-0.17639 -1.05833,-2.116667 c -0.56444,-1.164167 -1.30527,-2.293054 -1.5875,-2.54 -0.70554,-0.564443 -1.5875,-0.564443 -2.0461,0 z"
         inkscape:connector-curvature="0"
         style="stroke-width:0.03527778" />
      <path
         id="path9759"
         d="m 289.06082,73.715192 c -0.7761,2.25778 -2.32833,5.08 -3.10443,5.57389 -0.4939,0.352777 -2.50474,0.987777 -4.4803,1.446387 -1.94027,0.458613 -3.84527,0.98778 -4.19804,1.199446 -0.74083,0.388054 -3.175,3.421944 -3.175,3.915834 0,0.635 0.7761,0.28222 1.86971,-0.881947 1.44639,-1.55222 1.86973,-1.72861 5.89139,-2.68111 1.83444,-0.423333 3.73944,-1.023056 4.26861,-1.305277 0.9525,-0.564446 2.54,-2.8575 2.96333,-4.339166 0.4939,-1.658057 1.9403,-1.975557 1.9403,-0.423334 0,1.375834 1.83443,4.1275 3.24553,4.90361 0.88197,0.458611 2.01084,0.599724 4.69197,0.635 4.65666,0.03528 5.78553,0.705557 6.35,3.774724 0.1411,0.811387 0.4586,1.340553 0.74083,1.340553 1.12887,0 0.1411,-3.598333 -1.41113,-5.150553 -1.48167,-1.481667 -3.4572,-1.975557 -6.6675,-1.693334 -3.35137,0.282221 -4.55083,-0.282223 -5.57387,-2.610556 -1.55223,-3.4925 -1.9403,-4.1275 -2.54,-4.233334 -0.3528,-0.07055 -0.70557,0.141113 -0.8114,0.529167 z"
         inkscape:connector-curvature="0"
         style="stroke-width:0.03527778" />
      <path
         id="path9761"
         d="m 18.162782,74.032692 c -14.5344599,1.023057 -52.24639,1.905 -60.85417,1.44639 -3.73944,-0.211667 -7.54944,-0.211667 -9.70139,-0.03528 l -3.52778,0.3175 -0.24694,2.293054 c -0.14111,1.27 -0.17639,4.727223 -0.0706,7.725833 0.59973,17.003891 0.21167,41.028061 -0.67027,41.910011 -0.3175,0.28222 -5.99723,0.45861 -20.91973,0.67027 -18.62666,0.21167 -20.60222,0.17639 -21.66055,-0.35277 -1.481672,-0.74084 -1.658062,-0.70556 -1.869722,0.14111 -0.45861,1.79916 1.587502,1.94027 25.541112,1.5875 14.74611,-0.21167 19.01472,-0.35278 19.50861,-0.74084 0.49389,-0.35277 0.74083,-1.41111 1.16416,-4.79777 0.42334,-3.56307 0.49389,-8.04334 0.3175,-25.541121 l -0.21166,-21.237223 1.27,-0.246944 c 0.70555,-0.105833 6.45583,-0.105833 12.80583,0 11.99445,0.246944 31.0091701,-0.141113 49.0714001,-1.058333 5.7149999,-0.282223 11.6416599,-0.564444 13.1233299,-0.599723 1.5875,-0.07055 2.92804,-0.3175 3.175,-0.564444 0.98777,-0.987777 -1.02306,-1.27 -6.24417,-0.917223 z"
         inkscape:connector-curvature="0"
         style="stroke-width:0.03527778" />
      <path
         id="path9763"
         d="m 442.06055,81.546859 c -0.74083,1.375833 -3.175,2.151943 -6.63223,2.151943 -2.92806,0 -3.24556,0.07056 -4.05693,0.881947 -0.84667,0.846666 -1.9403,3.598333 -1.55224,3.95111 0.42334,0.423333 1.23474,-0.282223 1.4464,-1.27 0.38804,-1.72861 1.34054,-2.151944 4.86834,-2.151944 2.39887,0 3.42193,-0.141113 4.48026,-0.705556 0.74084,-0.388057 1.4464,-0.846667 1.5875,-1.058334 0.45861,-0.705556 1.79917,-0.352776 2.57527,0.705557 1.05834,1.375833 2.29307,1.975554 4.83307,2.257777 3.21027,0.388056 3.73943,0.564443 4.09223,1.516943 0.17637,0.529167 0.52917,0.81139 0.9172,0.740834 0.9878,-0.176387 0.88197,-0.811387 -0.49387,-2.293054 -1.27,-1.340557 -1.48166,-1.44639 -3.95113,-1.658057 -3.4572,-0.352776 -4.0922,-0.635 -5.15053,-2.328333 -0.9878,-1.5875 -2.36363,-1.905 -2.96334,-0.740833 z"
         inkscape:connector-curvature="0"
         style="stroke-width:0.03527778" />
      <path
         id="path9765"
         d="m 113.97722,82.957969 -2.61057,0.211667 -0.81137,2.116666 c -1.12889,3.03389 -1.34056,6.20889 -0.88196,13.97 0.59973,9.948338 0.6703,25.117778 0.10583,29.950838 -0.70553,6.38528 -0.74083,6.49111 -2.11666,6.63222 -0.635,0.0706 -3.175,-0.21166 -5.64444,-0.59972 -2.469428,-0.38806 -6.702768,-0.88194 -9.419158,-1.09361 -2.7164,-0.21167 -6.77334,-0.52917 -8.99584,-0.70556 -2.2225,-0.14111 -4.48027,-0.45861 -4.97416,-0.635 -1.23474,-0.49389 -1.65807,-0.10583 -1.5875,1.34056 l 0.0706,1.23472 7.51417,0.24695 c 4.1275,0.10583 8.89,0.38805 10.54803,0.635 1.69334,0.21166 4.65667,0.59972 6.596968,0.88194 4.86833,0.67028 7.40833,0.84667 7.83166,0.59972 0.35277,-0.24694 0.74084,-2.71639 1.51694,-9.41916 0.4586,-4.1275 0.4586,-17.46251 -0.0353,-24.87084 -0.84667,-13.370278 -0.52917,-17.674168 1.34054,-18.379724 0.45863,-0.176387 3.4925,-0.3175 6.6675,-0.3175 h 5.82083 l -0.10583,-0.987777 -0.10584,-0.9525 -4.05693,-0.03528 c -2.2225,0 -5.2211,0.07055 -6.6675,0.176387 z"
         inkscape:connector-curvature="0"
         style="stroke-width:0.03527778" />
      <path
         id="path9767"
         d="m 159.09749,85.145192 c -2.2225,0.105833 -4.9036,0.246944 -5.89137,0.282223 -1.6228,0.03528 -1.86973,0.14111 -1.86973,0.740834 0,0.881943 1.30526,1.23472 3.28083,0.881943 1.86973,-0.3175 2.46943,-0.352777 8.85473,-0.246943 l 5.2211,0.07055 -0.24693,0.776113 c -0.1764,0.45861 -0.38807,8.5725 -0.52917,18.097498 -0.14113,9.48972 -0.3528,17.67417 -0.45863,18.16806 -0.3175,1.12889 -0.35277,10.93611 -0.0353,12.48834 0.1764,1.05833 0.10584,1.19944 -0.70556,1.41111 -1.94027,0.49389 -0.74084,0.84666 3.95113,1.16416 4.79777,0.35278 4.83303,0.35278 1.65803,0.42334 -1.7286,0.0353 -3.81,0.21166 -4.5861,0.35278 -1.37583,0.3175 -1.37583,0.3175 0.70557,0.38805 5.78553,0.21167 27.97527,0.35278 28.68083,0.17639 0.7761,-0.17639 1.0936,-1.34056 0.4586,-1.72861 -0.1411,-0.10583 -6.38527,-0.28222 -13.86416,-0.35278 -7.44361,-0.10583 -13.79361,-0.28222 -14.11111,-0.38805 -0.635,-0.24695 -1.05833,-3.38667 -0.81139,-6.0325 0.9525,-9.48973 1.23473,-14.00529 1.4111,-22.01334 0.4939,-22.295561 0.4939,-23.918338 0.0706,-24.271114 -0.59973,-0.458613 -6.45583,-0.67028 -11.18306,-0.388057 z"
         inkscape:connector-curvature="0"
         style="stroke-width:0.03527778" />
      <path
         id="path9769"
         d="m 293.50582,90.013525 -1.5875,0.211667 -0.42333,2.469444 c -0.74084,4.339166 -1.5875,22.048614 -1.37584,28.927774 0.67027,19.72029 0.67027,20.28473 0.0706,20.95501 -0.52917,0.56444 -1.5875,0.67028 -10.37167,0.84666 -5.43279,0.10584 -11.39473,0.42334 -13.47613,0.74084 -6.52637,0.91722 -8.14914,1.55222 -7.0908,2.82222 0.35277,0.38805 0.7761,0.38805 2.6811,0 5.25637,-1.09361 11.00667,-1.55222 19.79083,-1.55222 6.6675,0 8.96054,-0.10584 9.24277,-0.45861 0.70557,-0.88195 1.05833,-4.83306 0.88194,-10.65389 -0.0705,-3.31611 -0.28221,-6.80861 -0.45861,-7.83167 -0.4586,-2.57528 0.35277,-28.927781 0.98777,-32.385001 0.24697,-1.411113 0.28223,-1.411113 2.18723,-1.658057 3.06917,-0.423333 18.2739,-0.03528 24.69444,0.599723 4.69196,0.493887 8.1139,0.564444 17.6389,0.423334 6.4911,-0.105834 13.12333,-0.07056 14.7461,0.07055 2.64583,0.211667 2.92806,0.17639 3.10446,-0.423333 0.59971,-1.86972 -1.27,-2.081387 -18.9089,-2.18722 -8.64306,-0.07056 -17.2861,-0.3175 -19.22639,-0.529167 -4.09221,-0.423333 -20.77861,-0.740833 -23.10694,-0.388057 z"
         inkscape:connector-curvature="0"
         style="stroke-width:0.03527778" />
      <path
         id="path9773"
         d="m -193.04527,92.659359 c -0.635,0.45861 -1.48167,2.575277 -2.54,6.244166 -0.91722,3.175005 -4.09222,5.820835 -8.64306,7.161395 -3.06916,0.91722 -7.90222,1.65805 -13.97,2.15194 -6.13833,0.49389 -7.58472,0.91722 -9.38388,2.89278 -1.12889,1.19944 -2.78695,4.40972 -2.78695,5.3975 0,1.02305 0.67028,0.88194 1.09361,-0.24695 1.19945,-3.175 2.75167,-5.08 4.79778,-5.96194 0.635,-0.28222 2.32833,-0.49389 3.84528,-0.49389 6.45583,0 16.05139,-1.72861 19.79083,-3.56306 3.4925,-1.69333 5.08,-3.45722 6.17361,-7.020275 0.52917,-1.658056 1.02306,-3.421943 1.12889,-3.986389 0.17639,-0.635 0.45861,-0.9525 0.9525,-0.9525 0.38806,0 0.74083,0.211666 0.81139,0.423333 0.45861,1.799167 1.27,3.774723 2.78694,6.879171 2.25778,4.65666 3.06917,5.25639 7.90223,5.96194 1.905,0.24695 9.03111,0.70556 15.80444,0.9525 15.34583,0.56445 15.16944,0.52917 15.41638,5.22111 0.10584,1.69334 0.24695,2.25778 0.635,2.25778 0.42334,0 0.49389,-0.49389 0.38806,-2.64583 -0.21167,-5.08 -1.41111,-5.82084 -9.91306,-6.31472 -3.21027,-0.21167 -9.06638,-0.45862 -13.05277,-0.56445 -8.64305,-0.28222 -11.64167,-0.635 -13.44083,-1.65805 -1.34056,-0.74084 -1.94028,-1.79917 -5.50334,-10.160005 -0.88194,-2.046113 -1.48166,-2.575279 -2.29305,-1.975556 z"
         inkscape:connector-curvature="0"
         style="stroke-width:0.03527778" />
      <path
         id="path9775"
         d="m 415.03776,93.223802 c -10.86554,0.105834 -19.79084,0.211667 -19.82611,0.282223 -0.24693,0.17639 -0.0706,1.481667 0.1764,1.481667 6.27944,0.14111 33.655,0.03528 38.80554,-0.17639 l 7.1614,-0.28222 -0.21167,3.4925 c -0.635,9.948338 -0.67027,12.276668 -0.4586,20.073058 0.10583,4.65666 0.38804,9.87778 0.635,11.64167 0.21167,1.72861 0.52917,4.58611 0.74083,6.35 0.17637,1.72861 0.38804,3.56305 0.4586,4.05694 0.0706,0.49389 0.3175,2.92806 0.52917,5.46806 0.24694,2.50472 0.59973,5.92666 0.8114,7.58472 0.21167,1.65805 0.38804,3.35139 0.42333,3.77472 0.0353,0.81139 0.0705,0.81139 6.0325,0.81139 3.3161,0 7.4436,0.17639 9.17221,0.35278 5.89139,0.67027 22.18973,2.15194 27.97529,2.54 4.30387,0.3175 5.8561,0.28222 6.13834,0 0.9172,-0.91723 -0.28224,-1.12889 -12.2414,-2.18723 -7.02027,-0.635 -16.79223,-1.62277 -22.0486,-2.29305 -1.23474,-0.17639 -11.04197,-0.52917 -13.97,-0.52917 -0.3528,0 -0.4939,-0.49389 -0.4939,-1.69333 -0.0353,-2.68111 -1.83444,-21.2725 -2.54,-25.64694 -0.4586,-2.99862 -0.59973,-23.0364 -0.21167,-29.809731 0.21167,-3.31611 0.1411,-3.77472 -0.4586,-4.656667 -0.70557,-0.9525 -0.77613,-0.987777 -3.77473,-0.91722 -1.69334,0.07055 -11.95917,0.176387 -22.82473,0.28222 z"
         inkscape:connector-curvature="0"
         style="stroke-width:0.03527778" />
      <path
         id="path9777"
         d="m -232.23888,120.17603 c -0.45861,1.16416 0.67028,1.37583 5.67972,1.16416 2.96333,-0.14111 8.18445,0 13.47611,0.35278 6.52639,0.38806 11.95917,0.49389 22.04861,0.35278 13.75833,-0.21167 20.955,0.0353 31.36194,1.02305 6.84389,0.67028 10.16,0.56445 11.04195,-0.28222 0.52916,-0.56444 0.49389,-0.59972 -0.28223,-0.77611 -0.45861,-0.10583 -3.13972,-0.24694 -5.96194,-0.35278 -2.82222,-0.10583 -7.79639,-0.42333 -11.1125,-0.70555 -4.16277,-0.35278 -11.32416,-0.49389 -23.45972,-0.49389 -10.01889,0.0353 -19.57916,-0.14111 -22.40139,-0.38806 -2.71638,-0.21166 -8.36083,-0.38805 -12.55888,-0.38805 -6.31473,0 -7.69056,0.10583 -7.83167,0.49389 z"
         inkscape:connector-curvature="0"
         style="stroke-width:0.03527778" />
    </g>
  </g>
</svg>
