<?xml version="1.0" encoding="UTF-8" standalone="no"?>
<!-- Created with Inkscape (http://www.inkscape.org/) -->

<svg
   xmlns:dc="http://purl.org/dc/elements/1.1/"
   xmlns:cc="http://creativecommons.org/ns#"
   xmlns:rdf="http://www.w3.org/1999/02/22-rdf-syntax-ns#"
   xmlns:svg="http://www.w3.org/2000/svg"
   xmlns="http://www.w3.org/2000/svg"
   xmlns:sodipodi="http://sodipodi.sourceforge.net/DTD/sodipodi-0.dtd"
   xmlns:inkscape="http://www.inkscape.org/namespaces/inkscape"
   width="183.5856mm"
   height="92.825737mm"
   viewBox="0 0 183.5856 92.825737"
   version="1.1"
   id="svg12179"
   inkscape:version="0.92.5 (2060ec1f9f, 2020-04-08)"
   sodipodi:docname="timer_hw.svg">
  <defs
     id="defs12173" />
  <sodipodi:namedview
     id="base"
     pagecolor="#ffffff"
     bordercolor="#666666"
     borderopacity="1.0"
     inkscape:pageopacity="0.0"
     inkscape:pageshadow="2"
     inkscape:zoom="0.35"
     inkscape:cx="102.54652"
     inkscape:cy="263.11902"
     inkscape:document-units="mm"
     inkscape:current-layer="layer1"
     showgrid="false"
     fit-margin-top="0"
     fit-margin-left="0"
     fit-margin-right="0"
     fit-margin-bottom="0"
     inkscape:window-width="1918"
     inkscape:window-height="1057"
     inkscape:window-x="1920"
     inkscape:window-y="0"
     inkscape:window-maximized="0" />
  <metadata
     id="metadata12176">
    <rdf:RDF>
      <cc:Work
         rdf:about="">
        <dc:format>image/svg+xml</dc:format>
        <dc:type
           rdf:resource="http://purl.org/dc/dcmitype/StillImage" />
        <dc:title></dc:title>
      </cc:Work>
    </rdf:RDF>
  </metadata>
  <g
     inkscape:label="Layer 1"
     inkscape:groupmode="layer"
     id="layer1"
     transform="translate(-75.109083,-125.6245)">
    <g
       id="g12932"
       transform="matrix(0.27822098,0.00248094,-0.00215183,0.32077231,120.83697,116.43807)">
      <path
         id="path11358"
         d="m 22.754407,28.929144 c -0.9525,1.093611 -2.92805,4.409723 -4.65667,7.831667 -0.91722,1.834444 -2.01083,3.598333 -2.36361,3.951111 -0.35277,0.3175 -0.67027,0.917222 -0.67027,1.340555 0,0.388056 -0.24695,1.199445 -0.52917,1.763889 -0.88195,1.658056 -1.62278,4.233333 -1.51695,5.044722 0.0706,0.423334 0.38806,0.811389 0.74084,0.881945 0.45861,0.105833 0.59972,-0.141111 0.59972,-1.058334 0,-0.635 0.45861,-2.293055 1.02306,-3.633611 l 0.98777,-2.469444 1.905,-0.211667 c 1.05834,-0.141111 2.64584,-0.352777 3.56306,-0.493889 1.94028,-0.282222 1.97555,-0.246944 2.08139,3.880556 0.0705,2.645833 0.38805,3.704166 1.05833,3.704166 0.635,0 0.67028,-1.622777 0.14111,-6.914444 -0.3175,-3.033889 -0.635,-5.644444 -0.74083,-5.820833 -0.0706,-0.141111 -0.17639,-1.940278 -0.17639,-3.986389 -0.0353,-3.986389 -0.42333,-5.009444 -1.44639,-3.81 z m -0.14111,4.198056 c 0.10583,0.564444 0.28222,2.257778 0.38806,3.845278 0.24694,2.786944 0.21166,2.857499 -0.59973,3.069166 -1.27,0.352778 -4.09222,0.282222 -4.33916,-0.105833 -0.10584,-0.176389 0.52916,-1.728611 1.44639,-3.421945 0.88194,-1.693333 1.76388,-3.386666 1.94027,-3.739444 0.49389,-0.881944 0.9525,-0.740833 1.16417,0.352778 z"
         inkscape:connector-curvature="0"
         style="stroke-width:0.03527778" />
      <path
         id="path11360"
         d="m 31.679687,32.421644 c -0.84667,3.739445 -1.16417,6.455833 -1.19945,10.16 -0.0705,3.351389 0.0353,4.056944 0.635,5.115278 0.81139,1.375833 2.2225,1.799166 2.96334,0.917222 0.38805,-0.458611 0.3175,-0.599722 -0.42334,-0.881945 -0.49388,-0.211666 -1.09361,-0.705555 -1.34055,-1.164166 -0.56445,-1.058334 -0.45861,-6.420556 0.24694,-10.336389 1.02306,-5.750277 0.98778,-5.468055 0.21167,-5.468055 -0.56444,0 -0.77611,0.352778 -1.09361,1.658055 z"
         inkscape:connector-curvature="0"
         style="stroke-width:0.03527778" />
      <path
         id="path11362"
         d="m 204.8583,38.736366 c -11.35946,0.705556 -21.62529,1.305278 -29.80973,1.728611 -5.43277,0.282223 -12.66473,0.670278 -16.05139,0.881945 -13.47611,0.740833 -57.22055,2.469444 -62.335823,2.469444 -0.52917,0 -0.81139,0.211667 -0.81139,0.599722 0,0.529167 0.74083,0.564445 8.925273,0.352778 15.0636,-0.388055 42.2275,-1.516944 57.74973,-2.363611 3.38667,-0.211667 10.86554,-0.599722 16.58054,-0.881944 5.715,-0.282223 13.0175,-0.670278 16.22779,-0.881945 8.5725,-0.529166 25.25888,-0.635 25.75277,-0.141111 0.28223,0.282222 0.38807,3.81 0.38807,11.959166 -0.0353,8.184445 0.10583,12.594166 0.4586,15.134166 0.28223,1.940279 0.59973,5.538613 0.74083,7.972779 0.10584,2.434167 0.24694,4.727221 0.28223,5.115277 0.0705,0.670277 -0.17639,0.705557 -4.445,0.81139 -3.63362,0.07055 -4.55083,0.211667 -4.72723,0.635 -0.10583,0.28222 0.0706,0.811387 0.35277,1.128887 1.7639,1.869723 2.82223,3.386667 3.73946,5.468056 0.59971,1.305277 1.44638,2.928057 1.94027,3.668888 0.52917,0.740833 0.91723,1.481666 0.91723,1.693333 0,0.246946 -2.54,0.529167 -6.77333,0.81139 -3.73946,0.246943 -8.21973,0.599723 -9.98363,0.77611 -1.7286,0.17639 -4.69193,0.49389 -6.52637,0.670279 -1.83446,0.211667 -6.6675,0.529167 -10.75973,0.740834 -19.12056,0.987777 -42.43917,3.28083 -49.24777,4.83305 -3.24556,0.70556 -4.445,1.51695 -4.7625,3.13973 -0.3175,1.62277 0.0353,12.41777 0.52917,16.1925 0.3175,2.64583 0.88193,7.62 1.83443,15.98083 0.21167,1.97555 0.3175,5.715 0.24694,8.29028 -0.17637,5.32694 0.14113,11.71222 0.91723,18.20333 0.59973,4.65667 1.02306,12.02972 1.62277,27.55194 1.02306,26.77584 1.16417,36.12445 0.91723,70.90834 -0.21167,34.18416 -0.10583,39.61693 0.7761,40.1814 0.1764,0.10583 0.42334,0.98776 0.56446,1.97553 0.10584,0.9525 0.35277,1.83447 0.49388,1.97557 0.21166,0.21166 5.64446,1.34056 10.30112,2.11666 11.92388,1.97557 31.50304,4.09224 45.50834,4.90361 3.59833,0.21166 8.14916,0.52916 10.08943,0.74083 1.97557,0.1764 4.05694,0.3175 4.58611,0.3175 0.56446,-0.0353 4.26862,0.21167 8.255,0.4939 18.76779,1.34056 38.80556,1.5875 43.92083,0.52916 0.98779,-0.17639 4.6214,-0.49389 8.1139,-0.67026 3.4925,-0.1764 9.59556,-0.52917 13.58193,-0.74084 3.9864,-0.21166 13.0175,-0.52916 20.10834,-0.70556 13.75833,-0.3175 16.93333,-0.52917 16.93333,-1.0936 0,-0.1764 0.24696,-0.56447 0.52917,-0.84667 0.28223,-0.3175 0.52916,-0.84667 0.52916,-1.23473 0,-0.38807 0.3175,-0.74084 0.8114,-0.84667 0.74083,-0.21167 0.7761,-0.38806 0.8114,-3.81 0.0705,-6.38527 0.84666,-27.76361 1.19943,-33.23167 1.1289,-17.145 1.09361,-15.875 2.04611,-61.38333 0.35279,-16.26305 -0.0353,-41.5925 -0.77611,-50.97639 -0.28223,-3.77472 -0.56443,-8.46666 -0.59973,-10.40694 l -0.10583,-3.52778 3.31613,-0.10583 c 1.83443,-0.0353 4.51554,-0.24695 5.89137,-0.42334 5.2564,-0.70555 38.02946,-2.32833 38.52333,-1.905 0.10584,0.0706 -0.2822,1.37584 -0.7761,2.89278 -1.02306,2.92806 -1.19944,4.62139 -0.52917,5.29167 0.88194,0.88194 1.34057,0.45861 1.37584,-1.27 0,-0.91722 0.4586,-2.82222 0.98777,-4.30389 l 0.98779,-2.64583 21.13137,-0.17639 c 11.64167,-0.10584 21.37834,-0.24695 21.66057,-0.35278 0.5997,-0.21167 0.635,0.38805 0.24693,3.56305 -0.1764,1.48167 -0.10583,2.11667 0.28223,2.64584 0.49387,0.635 0.56444,0.635 0.88194,0.0705 0.21167,-0.35277 1.7639,-1.55222 3.45723,-2.71639 3.52777,-2.43416 5.00944,-3.73944 5.00944,-4.40972 0,-1.62278 -3.81,-3.73944 -6.70277,-3.73944 -0.74084,0 -1.48167,-0.17639 -1.5875,-0.35278 -0.42334,-0.67028 -0.88197,0.0353 -0.88197,1.37583 0,1.27 -0.10583,1.37584 -1.12887,1.5875 -1.86973,0.38806 -41.20443,0.70556 -41.20443,0.3175 0,-0.17639 0.88193,-2.36361 1.97554,-4.86833 2.15196,-4.93889 2.50473,-6.70278 1.44639,-6.70278 -0.49389,0 -0.98777,0.88195 -2.15193,3.88056 -0.8114,2.11666 -1.905,4.79778 -2.43417,5.89139 l -0.91723,2.04611 h -3.45723 c -4.40971,0.0353 -11.14777,0.24694 -21.44887,0.70555 -12.48834,0.56445 -16.47473,0.88195 -17.6389,1.51695 -0.38806,0.21166 -1.94027,0.42333 -3.42194,0.49389 -2.61056,0.14111 -2.75166,0.10583 -2.89279,-0.67028 -0.10583,-0.45861 -0.24694,-3.91583 -0.35277,-7.69056 -0.10583,-3.77472 -0.35277,-8.39611 -0.56444,-10.23055 -0.35279,-3.52778 -1.23473,-27.79889 -1.12889,-31.820557 0.0353,-2.293053 0.0353,-2.36361 -1.09361,-3.033887 -1.02306,-0.564446 -1.5875,-0.635 -5.53862,-0.388056 -4.02167,0.246943 -23.00111,1.058333 -36.33611,1.55222 -2.9986,0.141113 -13.7936,0.35278 -23.98889,0.564446 -10.83027,0.176388 -20.77861,0.529167 -23.98888,0.846667 -6.70279,0.635 -6.70279,0.635 -6.70279,0.105833 0,-0.211666 0.88196,-1.305279 1.94029,-2.434166 2.39888,-2.504723 4.16277,-6.0325 3.98638,-7.972777 l -0.10584,-1.340557 -3.70416,-0.176389 -3.70417,-0.176387 -0.24694,-1.5875 c -0.10583,-0.881947 -0.24693,-2.786947 -0.24693,-4.268613 -0.0353,-1.446387 -0.28223,-4.480277 -0.56446,-6.702777 -0.38804,-2.822223 -0.59971,-7.690557 -0.67027,-16.474722 -0.0706,-11.218333 -0.14111,-12.488333 -0.70557,-13.052777 -0.52916,-0.529167 -1.51693,-0.599722 -8.255,-0.635 -4.19804,-0.03528 -8.5372,0 -9.59554,0.07056 z m 117.68667,56.65611 c -0.0706,5.185834 0.81137,29.386384 1.16417,33.266944 0.17637,1.94028 0.42333,8.11389 0.56443,13.75833 0.10584,5.60917 0.45861,13.40556 0.77611,17.28611 0.98779,12.73528 0.81139,72.88389 -0.24694,90.13473 -0.21167,3.59833 -0.52917,9.63083 -0.70556,13.40555 -0.17638,3.77472 -0.45861,10.12472 -0.67027,14.11111 -0.42334,8.39611 -1.05834,22.68362 -1.27,28.71612 -0.0706,2.29304 -0.28223,4.30387 -0.42334,4.445 -0.59973,0.56444 -3.91583,0.74084 -18.62666,1.02304 -24.09473,0.45863 -36.33611,1.02306 -38.62917,1.72863 -2.78694,0.84667 -28.3986,0.84667 -41.275,-0.0353 -11.67694,-0.7761 -13.1939,-0.9172 -17.81527,-1.30527 -2.11667,-0.17639 -6.80863,-0.49389 -10.40696,-0.70556 -14.64027,-0.84667 -35.66583,-3.24554 -46.39027,-5.32694 -2.15194,-0.42333 -4.445,-0.84666 -5.11527,-0.9525 -1.48167,-0.21166 -1.7639,-0.56443 -1.7639,-2.2225 0,-0.9525 -0.17639,-1.34056 -0.67027,-1.48166 -1.02306,-0.24694 -1.19946,-3.52777 -1.05833,-17.53306 0.28221,-25.68222 0.10583,-73.80111 -0.3175,-85.37222 -1.05833,-28.78667 -1.1289,-30.09194 -2.2225,-38.45278 -0.21167,-1.65805 -0.42333,-8.5725 -0.4939,-15.34583 -0.0706,-8.96056 -0.24693,-13.37028 -0.635,-16.05139 -0.3175,-2.04611 -0.74083,-6.17361 -0.9525,-9.17222 -0.21166,-2.99861 -0.52916,-7.02028 -0.67027,-8.96056 -0.28223,-3.42194 -0.0706,-5.99722 0.52917,-6.56166 0.635,-0.56445 18.59137,-2.57528 33.30221,-3.70417 3.77473,-0.282223 7.76112,-0.599723 8.81946,-0.705556 1.05833,-0.07055 4.55083,-0.246944 7.7611,-0.352777 5.96194,-0.246944 12.62944,-0.81139 20.4611,-1.728611 2.43417,-0.282223 7.3378,-0.705556 10.9714,-0.917223 3.59833,-0.176389 9.2075,-0.599723 12.5236,-0.881943 9.2075,-0.81139 18.9089,-1.234723 28.01057,-1.234723 15.5575,0 59.76056,-1.44639 60.28973,-1.975557 0.0705,-0.07055 1.30527,-0.14111 2.6811,-0.14111 h 2.54 z"
         inkscape:connector-curvature="0"
         style="stroke-width:0.03527778" />
      <path
         id="path11364"
         d="m 248.60274,95.357197 c -5.18583,0.282223 -19.89667,1.12889 -30.86806,1.76389 -3.28084,0.176389 -7.02027,0.45861 -8.29027,0.635 l -2.29307,0.282223 2.29307,0.07055 c 5.96193,0.105833 42.19223,-1.446388 48.50693,-2.081388 1.9403,-0.211666 3.6689,-0.529166 3.8453,-0.705556 0.42333,-0.423333 -5.46807,-0.388056 -13.1939,0.03528 z"
         inkscape:connector-curvature="0"
         style="stroke-width:0.03527778" />
      <path
         id="path11366"
         d="m 263.77218,95.32192 c 0,0.423333 2.54,0.423333 5.11529,0 1.55221,-0.211667 1.34054,-0.246944 -1.65806,-0.3175 -2.11667,0 -3.45723,0.105833 -3.45723,0.3175 z"
         inkscape:connector-curvature="0"
         style="stroke-width:0.03527778" />
      <path
         id="path11368"
         d="m 181.89247,113.7722 c -1.55223,1.02305 -4.33917,5.08 -6.77333,9.77194 -3.3514,6.49111 -4.1628,12.065 -2.36363,16.15722 1.4464,3.24556 3.45723,4.65667 6.59696,4.65667 4.79777,-0.0353 8.21971,-3.175 8.21971,-7.54944 0,-2.43417 -1.16417,-6.20889 -2.18721,-7.16139 -2.04613,-1.86973 -6.45583,-2.82222 -8.7489,-1.86973 -0.59973,0.24695 -1.16416,0.35278 -1.30527,0.21167 -0.38806,-0.38805 3.73944,-7.79639 6.17361,-10.97139 0.74083,-0.9525 1.65806,-1.79916 2.01083,-1.86972 0.7761,-0.14111 1.5875,-1.02305 1.5875,-1.72861 0,-0.74083 -1.905,-0.52917 -3.21027,0.35278 z m -6.31473,16.29833 c 0.56444,0.67028 1.19944,0.67028 1.79917,-0.0353 1.05833,-1.27 6.4911,0.3175 7.3025,2.18722 0.21166,0.42334 0.56443,1.72862 0.81139,2.89278 0.38804,1.905 0.38804,2.18722 -0.35279,3.70417 -0.635,1.34055 -1.12887,1.79917 -2.6811,2.54 -5.82084,2.75167 -9.59557,-1.51695 -8.29027,-9.31333 0.42333,-2.57528 0.635,-2.89278 1.4111,-1.97556 z"
         inkscape:connector-curvature="0"
         style="stroke-width:0.03527778" />
      <path
         id="path11370"
         d="m 235.6558,116.20636 c -0.21166,0.24695 -0.45862,1.34056 -0.56446,2.39889 -0.10583,1.05834 -0.9525,4.48028 -1.8697,7.58473 -1.48167,5.00944 -1.65807,6.03249 -1.69334,9.17222 -0.0353,2.92805 0.10584,3.81 0.74084,5.18583 1.94027,4.19806 7.40833,5.04472 10.58333,1.62278 2.50471,-2.68111 1.86971,-7.62 -1.37583,-10.83028 -1.79917,-1.76389 -2.92807,-2.2225 -5.18584,-2.08139 -2.32833,0.14111 -2.29306,0.42333 -0.67029,-4.83305 1.51696,-4.93889 1.55223,-10.12473 0.0353,-8.21973 z m 2.64584,15.24 c 2.43416,1.27 4.30387,4.30389 4.30387,6.94973 0,1.23472 -0.21167,1.65805 -1.23471,2.61055 -1.5875,1.51695 -2.8575,1.79917 -4.72723,1.02306 -2.50473,-0.98778 -3.91583,-4.40973 -3.38666,-8.255 0.21166,-1.41111 0.38806,-1.76389 0.91723,-1.76389 0.38804,0 0.7761,-0.24695 0.88193,-0.52917 0.28223,-0.67028 1.97557,-0.67028 3.24557,-0.0353 z"
         inkscape:connector-curvature="0"
         style="stroke-width:0.03527778" />
      <path
         id="path11372"
         d="m 196.25051,117.12359 c -0.10583,0.17639 -0.24694,2.61055 -0.35277,5.3975 -0.10583,2.78694 -0.42333,6.73805 -0.74083,8.78416 -0.77611,5.11528 -0.8114,8.50195 -0.0353,9.66611 0.70554,1.09361 1.4111,1.12889 3.42193,0.21167 2.0814,-0.9525 3.06917,-0.91722 3.28084,0.0706 0.0706,0.45861 0.28223,1.51694 0.4586,2.36361 0.28223,1.62277 1.23473,2.61055 1.83446,1.97555 0.21167,-0.24694 0.21167,-0.9525 0,-2.01083 -0.635,-2.99861 -0.42333,-3.52778 1.79917,-4.16278 1.65804,-0.49389 1.94027,-0.67028 1.94027,-1.41111 0,-0.84667 -0.0706,-0.88194 -2.0814,-0.77611 l -2.0461,0.10583 0.24693,-2.46944 c 0.21167,-2.15195 0.1764,-2.54 -0.35277,-2.71639 -0.9525,-0.38806 -1.34056,0.42333 -1.55223,3.10444 l -0.21166,2.54 -1.76388,0.38806 c -0.9525,0.21167 -2.11666,0.59972 -2.54,0.81139 -0.42333,0.24694 -0.84666,0.42333 -0.9525,0.42333 -0.42333,0 -0.17639,-3.4925 0.49388,-7.58472 0.9525,-5.50333 1.34056,-13.68778 0.70556,-14.46389 -0.4939,-0.56444 -1.27,-0.70555 -1.55223,-0.24694 z"
         inkscape:connector-curvature="0"
         style="stroke-width:0.03527778" />
      <path
         id="path11374"
         d="m 261.30274,117.68803 c -0.1764,0.45861 -0.42333,1.44639 -0.52917,2.18722 -0.1411,0.77611 -0.70556,3.42195 -1.30527,5.96195 -0.88196,3.73944 -1.23473,4.72722 -1.97556,5.32694 -0.7761,0.635 -0.8114,0.81139 -0.4586,1.51695 0.35277,0.635 0.35277,1.19944 0.0353,2.57527 -0.52917,2.18723 -0.28223,5.64445 0.52916,6.84389 0.77611,1.19945 2.61057,2.25778 3.88057,2.25778 2.08137,-0.0353 5.08,-1.905 4.30387,-2.71639 -0.1411,-0.10583 -0.84667,0.0706 -1.65804,0.38806 -0.77613,0.3175 -1.79917,0.56444 -2.25779,0.56444 -2.18721,0 -3.63361,-2.89278 -3.13971,-6.31472 l 0.28221,-1.86972 3.73946,-0.10584 c 3.84527,-0.10583 5.78554,-0.635 5.78554,-1.5875 0,-0.38805 -0.77611,-0.49389 -4.1275,-0.52916 -2.25777,0 -4.23334,-0.14111 -4.37444,-0.28223 -0.1411,-0.14111 -0.10583,-0.9525 0.1411,-1.76388 1.09363,-3.70417 2.92807,-12.34723 2.75167,-12.80584 -0.28221,-0.77611 -1.27,-0.56444 -1.62277,0.35278 z"
         inkscape:connector-curvature="0"
         style="stroke-width:0.03527778" />
      <path
         id="path11376"
         d="m 248.95551,127.53053 c 0,0.81139 0.56446,1.65806 1.1289,1.65806 0.4586,0 0.98777,-1.34056 0.7761,-1.905 -0.10583,-0.3175 -0.59971,-0.56445 -1.05833,-0.56445 -0.635,0 -0.84667,0.17639 -0.84667,0.81139 z"
         inkscape:connector-curvature="0"
         style="stroke-width:0.03527778" />
      <path
         id="path11378"
         d="m 218.96941,132.39886 c -0.67027,0.17639 -2.01084,0.28223 -2.99861,0.24695 -1.5875,-0.10584 -1.76389,-0.0353 -1.86973,0.67028 -0.17639,1.16416 1.05834,1.62277 3.63361,1.44638 2.54,-0.21166 4.51556,-1.09361 4.33916,-1.97555 -0.1411,-0.70556 -1.34054,-0.84667 -3.10443,-0.38806 z"
         inkscape:connector-curvature="0"
         style="stroke-width:0.03527778" />
      <path
         id="path11380"
         d="m 248.0383,133.95109 c -0.9525,2.29305 -0.49389,7.23194 0.70554,7.23194 0.3528,0 0.52917,-0.81139 0.6703,-3.45722 0.10583,-1.86972 0.2822,-3.77472 0.42333,-4.23334 0.21167,-0.635 0.1411,-0.77611 -0.4939,-0.77611 -0.56443,0 -0.91723,0.35278 -1.30527,1.23473 z"
         inkscape:connector-curvature="0"
         style="stroke-width:0.03527778" />
      <path
         id="path11382"
         d="m 175.89524,177.09581 c -2.11667,1.37583 -3.9864,3.63361 -5.50333,6.70278 -1.1289,2.25777 -1.30527,2.99861 -1.4464,5.67972 -0.17637,3.38666 0.21167,4.69194 1.905,6.70278 1.5875,1.905 4.7625,2.99861 6.63223,2.29305 1.05833,-0.42333 0.635,-1.19944 -0.635,-1.19944 -2.46944,0 -4.3039,-1.23473 -5.5739,-3.70417 -0.5997,-1.16417 -0.67027,-1.76389 -0.49387,-3.77472 0.42333,-4.51556 2.29304,-8.00806 5.67971,-10.61861 2.15196,-1.62278 3.13973,-1.5875 3.28083,0 0.21167,2.11666 1.1289,1.16416 1.1289,-1.12889 0,-2.15195 -2.36361,-2.61056 -4.97417,-0.9525 z"
         inkscape:connector-curvature="0"
         style="stroke-width:0.03527778" />
      <path
         id="path11384"
         d="m 216.88801,179.60053 c -0.21167,0.35278 -0.67027,1.76389 -1.05833,3.13972 -0.81138,2.92806 -0.9525,3.24556 -1.65804,3.24556 -0.6703,0 -0.635,1.55222 0.0353,2.11666 0.38806,0.3175 0.52916,1.12889 0.52916,2.78695 0.0353,5.18583 3.21027,8.11389 6.59694,6.0325 0.59973,-0.35278 1.30529,-1.02306 1.55223,-1.48167 0.21167,-0.45861 0.4586,-0.88194 0.52917,-0.9525 0.0706,-0.0705 0.56443,0.38806 1.0936,1.02306 1.72863,2.08139 5.08,2.75166 7.19667,1.51694 1.48166,-0.88194 1.09362,-1.37583 -0.98777,-1.23472 -1.02307,0.0706 -2.29307,-0.10583 -3.0339,-0.42333 -1.27,-0.52917 -2.71637,-2.32834 -2.71637,-3.42195 0,-0.49389 0.21166,-0.52916 1.37583,-0.21166 3.35137,0.91722 6.06777,-2.68112 3.45721,-4.51556 -2.36361,-1.65806 -6.45584,0.9525 -6.70277,4.26861 -0.0706,1.02306 -2.50473,3.59833 -3.6689,3.88056 -1.65804,0.42333 -3.03387,-1.79917 -2.8575,-4.65667 0.10583,-1.5875 0.1764,-1.72861 1.16417,-1.94028 1.79916,-0.35278 3.88056,-1.51694 3.98639,-2.2225 0.14111,-0.635 -0.0353,-0.67028 -2.18723,-0.45861 -2.75166,0.24695 -2.71637,0.3175 -1.44637,-3.52778 0.70554,-2.04611 0.81137,-2.75166 0.49387,-3.13972 -0.56443,-0.67028 -1.27,-0.59972 -1.69333,0.17639 z m 11.6064,9.56028 c 0,0.17639 -0.3175,0.35278 -0.70557,0.35278 -0.38804,0 -0.70554,-0.17639 -0.70554,-0.35278 0,-0.21167 0.3175,-0.35278 0.70554,-0.35278 0.38807,0 0.70557,0.14111 0.70557,0.35278 z"
         inkscape:connector-curvature="0"
         style="stroke-width:0.03527778" />
      <path
         id="path11386"
         d="m 186.05524,185.45664 c -4.09223,2.11667 -5.11527,8.85472 -1.65806,10.90083 1.27,0.74084 2.29306,0.70556 4.05696,-0.10583 2.6811,-1.23472 4.4097,-3.91583 4.4097,-6.80861 -0.0353,-3.24556 -3.88054,-5.50333 -6.8086,-3.98639 z m 2.92806,1.76389 c 0.24694,0.28222 0.81138,0.52917 1.27,0.52917 0.74084,0 0.84667,0.17639 0.84667,1.23472 0,1.30528 -0.70556,3.03389 -1.72863,4.16278 -0.5997,0.70555 -2.61054,1.65805 -3.4925,1.65805 -0.88193,0 -1.83443,-1.09361 -1.83443,-2.08139 0,-1.34055 1.51693,-4.37444 2.64583,-5.25639 1.16417,-0.91722 1.69333,-0.9525 2.29306,-0.24694 z"
         inkscape:connector-curvature="0"
         style="stroke-width:0.03527778" />
      <path
         id="path11388"
         d="m 196.17997,187.32636 c -0.67029,0.42334 -1.30529,2.96334 -1.30529,5.15056 0,1.83444 0.10583,2.18722 0.9525,2.92805 1.69333,1.44639 3.84529,0.88195 4.97416,-1.30527 0.74084,-1.44639 0.74084,-5.92667 0,-6.24417 -0.81137,-0.28222 -0.88193,-0.0706 -1.05833,2.2225 -0.17637,2.25778 -1.05833,3.84528 -2.15194,3.84528 -0.88193,0 -1.05833,-2.04611 -0.38806,-4.40972 0.35279,-1.19945 0.38806,-1.83445 0.14113,-2.08139 -0.45863,-0.45861 -0.635,-0.45861 -1.16417,-0.10584 z"
         inkscape:connector-curvature="0"
         style="stroke-width:0.03527778" />
      <path
         id="path11390"
         d="m 207.3983,187.82025 c -0.77612,0.77611 -0.84666,0.77611 -1.27,0.17639 -0.67029,-0.88194 -1.62279,-0.77611 -1.62279,0.17639 0,0.45861 -0.3175,2.08139 -0.67027,3.63361 -0.70556,2.8575 -0.56444,3.70417 0.52917,3.70417 0.24693,0 1.19943,-1.27 2.11666,-2.82222 0.91723,-1.55223 1.905,-2.82223 2.15194,-2.82223 0.24696,0 0.52917,0.42334 0.635,0.9525 0.56446,2.64584 0.98779,3.66889 1.7639,4.19806 1.30527,0.84667 2.29306,-0.24695 1.0936,-1.23472 -0.24694,-0.21167 -0.56444,-0.98778 -0.70554,-1.72861 -0.74083,-4.65667 -2.15196,-6.10306 -4.02167,-4.23334 z"
         inkscape:connector-curvature="0"
         style="stroke-width:0.03527778" />
      <path
         id="path11392"
         d="m 235.83218,189.51359 c -1.02304,0.24694 -1.72861,2.78694 -1.62277,5.82083 0.10583,1.86972 0.17639,2.11667 0.88193,2.2225 0.635,0.10583 0.9525,-0.17639 1.51696,-1.41111 0.38804,-0.84667 0.84667,-2.2225 1.05834,-3.06917 0.38804,-1.41111 0.4586,-1.51694 1.4111,-1.34055 1.79917,0.38805 5.64444,-0.91723 5.64444,-1.86973 0,-0.59972 -0.38804,-0.635 -4.02167,-0.59972 -2.2225,0.0353 -4.40971,0.14111 -4.86833,0.24695 z"
         inkscape:connector-curvature="0"
         style="stroke-width:0.03527778" />
      <path
         id="path11394"
         d="m 63.535517,41.205811 c -1.05833,1.093611 -1.94028,1.940277 -2.01083,1.869722 -0.0353,-0.07056 -0.38806,-0.776111 -0.77611,-1.552222 -0.88195,-1.799167 -1.79917,-1.940278 -3.175,-0.529167 -0.98778,1.058333 -1.94028,1.375833 -1.94028,0.705556 0,-0.211667 -0.21167,-0.352778 -0.49389,-0.352778 -0.81139,0 -1.37583,6.632222 -0.56444,6.738055 0.21166,0.03528 0.52916,0.07056 0.70555,0.105833 0.21167,0.03528 0.91722,-1.199444 1.5875,-2.751666 0.635,-1.516944 1.27,-2.8575 1.37584,-2.928056 0.52916,-0.529166 1.19944,0.388056 1.44638,1.905 0.24695,1.658056 0.67028,2.575278 1.23473,2.575278 0.14111,0 1.19944,-1.164167 2.32833,-2.610555 2.2225,-2.822223 2.96333,-2.998611 2.96333,-0.705556 0,1.728611 1.02306,4.092222 1.72861,3.951111 0.635,-0.141111 0.635,-0.670278 0.0706,-4.303889 -0.42333,-2.504722 -0.74083,-3.175 -1.86972,-3.774722 -0.56445,-0.282222 -0.98778,-0.03528 -2.61056,1.658056 z"
         inkscape:connector-curvature="0"
         style="stroke-width:0.03527778" />
      <path
         id="path11396"
         d="m 37.994407,40.923588 c -2.43417,1.199445 -3.59833,4.445 -2.25778,6.35 0.74084,1.058334 2.29306,1.023056 3.59834,-0.105833 1.02305,-0.846667 1.05833,-0.846667 1.62277,-0.211667 0.88195,0.987778 1.905,1.164167 2.32834,0.388056 0.28222,-0.529167 0.17639,-0.776111 -0.38806,-1.199445 -0.70555,-0.458611 -0.74083,-0.740833 -0.56444,-2.539999 0.17639,-1.763889 0.10583,-2.081389 -0.56445,-2.645834 -0.98777,-0.811389 -2.2225,-0.846666 -3.77472,-0.03528 z m 2.57528,1.340556 c 0.56444,0.564444 -1.94028,3.668889 -2.96333,3.668889 -1.05834,0 -1.12889,-0.670278 -0.28223,-1.940278 1.05834,-1.516944 2.61056,-2.328333 3.24556,-1.728611 z"
         inkscape:connector-curvature="0"
         style="stroke-width:0.03527778" />
      <path
         id="path11398"
         d="m 46.037737,42.052477 c -0.56444,1.446389 -1.34055,4.691945 -1.34055,5.503334 0,3.527777 2.29305,1.763888 2.78694,-2.151945 l 0.21167,-1.763889 1.76389,-0.211666 c 2.08139,-0.246945 4.16278,-1.234723 3.95111,-1.834445 -0.0706,-0.282222 -1.23472,-0.423333 -3.59833,-0.423333 -3.35139,0 -3.45723,0.03528 -3.77473,0.881944 z"
         inkscape:connector-curvature="0"
         style="stroke-width:0.03527778" />
      <path
         id="path11402"
         d="m 368.82941,105.86998 c -3.52777,4.19805 -5.08,6.91444 -5.46807,9.59555 -0.74083,4.72722 1.3053,7.37306 5.715,7.37306 2.50473,0 4.05696,-0.67028 5.32696,-2.2225 1.19944,-1.51695 1.34054,-2.54 0.56444,-4.1275 -1.05833,-2.11667 -4.86833,-3.63361 -7.4789,-2.92806 -1.2347,0.3175 -1.4111,0.28222 -1.4111,-0.21167 0,-0.91722 2.6811,-4.86833 4.79777,-7.05555 2.04613,-2.08139 2.15196,-2.36361 1.4464,-3.38667 -0.45861,-0.56444 -0.74084,-0.35278 -3.4925,2.96334 z m -3.38667,7.16138 c -0.24694,0.24695 -0.42333,0.28223 -0.42333,0.0706 0,-0.49389 0.42333,-0.91722 0.67027,-0.67027 0.0706,0.10583 -0.0353,0.38805 -0.24694,0.59972 z m -0.28223,1.12889 c -0.3175,0.84667 1.27,1.5875 3.42196,1.55223 1.94027,-0.0353 3.06917,0.35277 4.30387,1.41111 2.32834,2.04611 -2.89277,4.72722 -6.0325,3.10444 -1.62277,-0.84667 -2.6811,-3.06917 -2.3636,-5.00944 0.10583,-0.84667 0.35277,-1.55223 0.52917,-1.55223 0.17639,0 0.24693,0.21167 0.1411,0.49389 z"
         inkscape:connector-curvature="0"
         style="stroke-width:0.03527778" />
      <path
         id="path11404"
         d="m 381.0708,106.39914 c -0.81139,1.19945 -2.8575,7.09084 -3.38666,9.66611 -0.42334,2.01084 -0.38807,2.2225 0.24693,2.92806 0.59973,0.67028 0.91723,0.74083 3.06917,0.56444 2.0461,-0.17639 2.43417,-0.10583 2.61056,0.38806 0.38804,1.09361 1.19944,1.76389 1.905,1.5875 0.77611,-0.21167 0.84667,-0.56445 0.28221,-1.62278 -0.28221,-0.45861 -0.28221,-0.77611 -0.0705,-0.84667 0.21167,-0.0706 0.67027,-0.35277 1.02304,-0.59972 0.635,-0.49389 0.635,-0.52916 0,-1.23472 -0.59971,-0.67028 -0.635,-0.88194 -0.24694,-2.08139 0.56444,-1.72861 0.38807,-2.68111 -0.49389,-2.82222 -0.70554,-0.10583 -1.19944,0.9525 -2.15194,4.40972 -0.10583,0.49389 -2.11667,0.91722 -3.3514,0.74083 -1.16416,-0.14111 -1.05833,-0.98777 0.91723,-6.38527 1.27,-3.59834 1.55223,-4.65667 1.19944,-5.04473 -0.56444,-0.70555 -0.91721,-0.635 -1.55221,0.35278 z"
         inkscape:connector-curvature="0"
         style="stroke-width:0.03527778" />
      <path
         id="path11406"
         d="m 453.39024,133.03386 c -1.55223,0.9525 -4.55083,4.26861 -5.4328,5.96195 -1.44637,2.8575 -0.5997,6.70278 1.83447,8.21972 0.81137,0.49389 1.62277,0.67028 2.8575,0.59972 1.94027,-0.10583 2.57527,-0.84666 1.02303,-1.16416 -2.01083,-0.45862 -3.03387,-1.02306 -3.66887,-2.08139 -0.84666,-1.41111 -0.84666,-3.77473 0,-5.43278 0.84667,-1.62278 3.42194,-4.1275 4.72721,-4.62139 1.1289,-0.45861 1.62279,-1.37583 0.91723,-1.83444 -0.70557,-0.45862 -1.05833,-0.38806 -2.25777,0.35277 z"
         inkscape:connector-curvature="0"
         style="stroke-width:0.03527778" />
      <path
         id="path11408"
         d="m 491.03161,134.02164 c -0.17637,0.35278 -0.67027,1.69333 -1.0936,2.99861 -0.7761,2.32834 -0.8114,2.39889 -2.01083,2.39889 -1.37584,0 -1.62277,0.74083 -0.56444,1.86972 0.42333,0.45861 0.5997,1.27 0.5997,2.61056 0,1.5875 0.14113,2.04611 0.84667,2.61055 1.1289,0.91723 4.19807,0.91723 5.99723,-0.0353 2.43417,-1.23473 2.25777,-3.06917 -0.21166,-2.01084 -3.21027,1.34056 -4.48027,0.9525 -4.26861,-1.23472 l 0.10584,-1.16417 2.78693,-0.24694 c 1.55223,-0.14111 2.96334,-0.42333 3.175,-0.635 0.67027,-0.67028 -0.4586,-1.23472 -2.64583,-1.27 -1.1289,0 -2.18723,-0.10583 -2.29307,-0.24694 -0.10583,-0.10584 0.21167,-1.41112 0.74084,-2.89278 0.4939,-1.44639 0.8114,-2.82222 0.70556,-2.99861 -0.35277,-0.56445 -1.55223,-0.38806 -1.86973,0.24694 z"
         inkscape:connector-curvature="0"
         style="stroke-width:0.03527778" />
      <path
         id="path11410"
         d="m 460.26941,138.78414 c -4.6214,3.175 -4.9389,9.10167 -0.45863,9.10167 1.23473,0 1.7639,-0.21167 2.96333,-1.30528 1.69333,-1.51694 2.32833,-2.64583 2.43417,-4.33917 0.1764,-2.11666 0.0353,-2.43416 -1.4111,-3.35139 -1.72861,-1.09361 -2.04611,-1.09361 -3.52777,-0.10583 z m 2.5047,1.69333 c 1.41113,0.77612 0.45863,4.09223 -1.51693,5.15056 -1.23474,0.70556 -2.01084,0.56444 -2.46944,-0.38806 -0.4939,-1.09361 0.42333,-3.38666 1.76387,-4.445 0.9878,-0.77611 1.27,-0.81138 2.2225,-0.3175 z"
         inkscape:connector-curvature="0"
         style="stroke-width:0.03527778" />
      <path
         id="path11412"
         d="m 467.46607,140.37164 c -0.3175,0.74083 -0.635,2.01083 -0.74083,2.8575 -0.1764,1.23472 -0.0706,1.65806 0.5997,2.36361 1.1289,1.19945 2.64584,1.12889 4.72724,-0.17639 1.83443,-1.16416 2.6811,-2.68111 2.6811,-4.7625 0,-1.12889 -0.10584,-1.27 -0.7761,-1.16416 -0.59974,0.0705 -0.84667,0.42333 -1.09361,1.5875 -0.45863,2.36361 -3.38666,4.33916 -4.02166,2.68111 -0.14113,-0.3175 0.0353,-1.34056 0.38803,-2.29306 0.635,-1.86972 0.52917,-2.39889 -0.49387,-2.39889 -0.45863,0 -0.88196,0.45861 -1.27,1.30528 z"
         inkscape:connector-curvature="0"
         style="stroke-width:0.03527778" />
      <path
         id="path11414"
         d="m 480.20134,140.47747 c -0.59973,0.67028 -0.70556,0.67028 -1.27,0.14112 -1.05833,-0.9525 -1.5875,-0.35278 -2.18723,2.29305 -0.635,2.82222 -0.52917,3.56306 0.59973,3.56306 0.56444,0 1.19944,-0.635 2.32834,-2.43417 1.76389,-2.75167 2.46943,-2.82222 2.46943,-0.24694 0,1.62277 0.4939,2.50472 1.6228,2.82222 1.0936,0.3175 1.83443,-0.635 1.12887,-1.48167 -0.3175,-0.3175 -0.635,-1.27 -0.74084,-2.11667 -0.24693,-2.08138 -1.0936,-3.24555 -2.32833,-3.24555 -0.52917,0 -1.27,0.3175 -1.62277,0.70555 z"
         inkscape:connector-curvature="0"
         style="stroke-width:0.03527778" />
      <path
         id="path11416"
         d="m 59.161077,148.27386 c -7.3025,2.8575 -10.19528,3.35139 -21.51945,3.84528 -4.7625,0.21167 -10.93611,0.52917 -13.75833,0.74083 -2.82222,0.17639 -10.93611,0.635 -18.0622201,0.98778 -7.09084,0.38806 -13.08806,0.77611 -13.29972,0.91722 -0.56445,0.35278 -0.45862,1.12889 0.21166,1.37584 0.3175,0.14111 2.89278,0.0706 5.715,-0.14111 2.82222,-0.17639 7.9375,-0.52917 11.32417,-0.74084 3.3866701,-0.17639 9.7366701,-0.59972 14.1111101,-0.88194 4.37444,-0.28222 11.60639,-0.59972 16.05139,-0.70556 7.79639,-0.21166 8.29028,-0.24694 12.66472,-1.41111 2.50472,-0.67028 5.67972,-1.69333 7.02028,-2.29305 1.34055,-0.59973 2.57528,-0.9525 2.75167,-0.77611 0.635,0.635 1.05833,7.44361 1.05833,16.68638 0,9.98362 -0.3175,19.82612 -1.27,41.80417 -0.70556,15.5575 -1.19945,52.35222 -0.84667,62.44167 0.17639,4.05694 0.45861,8.5725 0.70556,9.94833 0.77611,4.7625 2.61055,4.51556 -32.31445,4.55083 -28.71611009,0.0353 -38.8055501,0.28223 -39.1936101,0.91723 -0.7055499,1.12888 0.52917,1.16416 31.8911101,1.05833 32.49084,-0.14111 37.21806,-0.28222 39.37,-1.30528 2.04611,-0.98778 2.32834,-1.86972 1.72861,-5.82083 -0.35277,-2.39889 -0.52916,-9.27806 -0.70555,-24.16528 -0.21167,-19.96722 0.10583,-35.45417 0.98778,-52.3875 1.37583,-26.52889 1.41111,-49.60055 0.10583,-54.08083 -0.10583,-0.3175 -0.59972,-0.81139 -1.12889,-1.09361 -0.84667,-0.42334 -1.19944,-0.38806 -3.59833,0.52916 z"
         inkscape:connector-curvature="0"
         style="stroke-width:0.03527778" />
      <path
         id="path11418"
         d="m -9.4189231,155.18831 c -0.52917,0.52916 0.14111,17.03916 1.37583,33.09055 0.59972,8.07861 0.70556,30.44473 0.17639,42.50973 -0.17639,4.16277 -0.74083,16.47472 -1.23472,27.34027 -0.9524999,21.30778 -1.0583399,26.14084 -0.56445,26.42306 0.56445,0.35278 0.70556,-1.16417 1.27,-13.54667 0.28223,-6.70278 0.77611,-16.86278 1.05834,-22.57778 1.41111,-28.68083 1.55222,-49.81222 0.38805,-64.55833 -0.67028,-8.53722 -1.27,-20.49639 -1.27,-25.04722 0,-2.64583 -0.10583,-3.4925 -0.49389,-3.63361 -0.28222,-0.10584 -0.59972,-0.10584 -0.70555,0 z"
         inkscape:connector-curvature="0"
         style="stroke-width:0.03527778" />
      <path
         id="path11420"
         d="m 19.050237,179.35359 c -1.30527,1.34055 -2.96333,4.58611 -3.77472,7.3025 -0.81139,2.75166 -0.74083,6.94972 0.10584,8.39611 1.5875,2.57527 5.00944,1.44639 6.87916,-2.25778 0.77611,-1.51695 0.70556,-3.21028 -0.14111,-4.62139 -0.70555,-1.16417 -0.77611,-1.16417 -2.89278,-1.09361 -1.23472,0.0705 -2.2225,-0.0706 -2.29305,-0.28222 -0.21167,-0.56445 3.06916,-6.80861 3.81,-7.26723 0.35278,-0.21166 0.67028,-0.59972 0.67028,-0.84666 0,-0.84667 -1.27,-0.45861 -2.36362,0.67028 z m 1.44639,9.31333 c 0.74084,0.28222 0.74084,2.39889 0,3.59833 -0.81139,1.30528 -2.43416,2.57528 -3.06916,2.36361 -0.67028,-0.28222 -1.41111,-2.82222 -1.12889,-4.05694 0.28222,-1.30528 2.78694,-2.43417 4.19805,-1.905 z"
         inkscape:connector-curvature="0"
         style="stroke-width:0.03527778" />
      <path
         id="path11422"
         d="m 7.4438569,179.00081 c -0.42334,0.67028 -0.84667,17.35666 -0.49389,17.70944 0.88194,0.88195 1.12889,-0.70555 1.41111,-8.5725 0.14111,-4.51555 0.35278,-8.29028 0.49389,-8.39611 0.24694,-0.24694 -0.42334,-1.16417 -0.88195,-1.16417 -0.14111,0 -0.38805,0.17639 -0.52916,0.42334 z"
         inkscape:connector-curvature="0"
         style="stroke-width:0.03527778" />
      <path
         id="path11424"
         d="m 33.761077,181.68192 c 0,0.56444 -0.3175,2.25778 -0.70556,3.77472 -1.97555,7.72583 0.45861,13.22917 4.1275,9.31333 1.05834,-1.16416 1.51695,-2.54 1.51695,-4.51555 0,-2.04611 -0.70556,-2.82222 -2.82223,-3.10445 -1.48166,-0.21166 -1.48166,-0.21166 -1.27,-1.48166 0.10584,-0.70556 0.3175,-2.11667 0.42334,-3.13972 0.21166,-1.69334 0.17639,-1.83445 -0.52917,-1.83445 -0.56444,0 -0.74083,0.21167 -0.74083,0.98778 z m 3.31611,7.33778 c 0.81139,0.3175 0.70555,1.79916 -0.3175,3.4925 -1.55222,2.71639 -2.68111,2.2225 -2.92806,-1.23473 -0.14111,-1.76388 -0.0705,-2.08138 0.49389,-2.2225 1.02306,-0.24694 2.15195,-0.28222 2.75167,-0.0353 z"
         inkscape:connector-curvature="0"
         style="stroke-width:0.03527778" />
      <path
         id="path11426"
         d="m 48.083857,181.85831 c -2.57528,3.91583 -3.42195,8.92528 -1.905,11.18305 1.23472,1.83445 2.99861,2.18723 5.15055,1.05834 2.54,-1.37584 3.10445,-3.13973 0.67028,-2.15195 -2.01083,0.84667 -3.52778,0.88195 -4.26861,0.10584 -0.3175,-0.38806 -0.56445,-1.09362 -0.49389,-1.55223 0.10583,-0.70555 0.28222,-0.77611 1.55222,-0.70555 0.98778,0.0705 1.5875,-0.0706 1.905,-0.45861 0.42333,-0.49389 0.42333,-0.635 -0.0353,-0.91723 -0.28222,-0.17638 -0.84666,-0.3175 -1.27,-0.3175 -0.98777,0 -1.86972,-0.35277 -1.86972,-0.74083 0,-0.17639 0.49389,-1.34055 1.05833,-2.61055 0.59973,-1.27 1.05834,-2.54 1.05834,-2.78695 0,-0.88194 -1.02306,-0.9525 -1.55222,-0.10583 z"
         inkscape:connector-curvature="0"
         style="stroke-width:0.03527778" />
      <path
         id="path11428"
         d="m 41.416357,184.18664 c -0.21167,0.84667 0,1.09361 0.88194,1.09361 0.74083,0 0.84667,-0.70555 0.21167,-1.34055 -0.59973,-0.59973 -0.88195,-0.52917 -1.09361,0.24694 z"
         inkscape:connector-curvature="0"
         style="stroke-width:0.03527778" />
      <path
         id="path11430"
         d="m 26.458577,188.31414 c -0.10584,0.28222 -0.10584,0.74083 0.0353,1.02306 0.28222,0.74083 2.96333,0.74083 3.28083,0 0.24694,-0.74084 0.17639,-0.77611 -1.5875,-1.19945 -1.23472,-0.24694 -1.55222,-0.21166 -1.72861,0.17639 z"
         inkscape:connector-curvature="0"
         style="stroke-width:0.03527778" />
      <path
         id="path11432"
         d="m 40.463857,191.13636 c -0.84667,2.18723 -1.09362,3.88056 -0.74084,4.83306 0.59972,1.51694 1.48167,1.09361 1.62278,-0.77611 0.0706,-0.49389 0.21167,-1.72861 0.35278,-2.71639 0.21166,-1.51695 0.17639,-1.83445 -0.3175,-2.01083 -0.42334,-0.17639 -0.67028,0.0353 -0.91722,0.67027 z"
         inkscape:connector-curvature="0"
         style="stroke-width:0.03527778" />
      <path
         id="path11434"
         d="m 9.6663569,210.11581 c -2.92806,1.05833 -4.83306,2.99861 -4.83306,4.90361 0,0.42333 -0.24694,2.75167 -0.56444,5.18583 -0.635,4.51556 -0.52917,6.35 0.35277,6.35 0.56445,0 0.91723,-1.05833 0.91723,-2.75166 0,-0.635 0.17638,-2.2225 0.38805,-3.52778 l 0.38806,-2.39889 1.16416,0.14111 c 1.69334,0.21167 4.5508401,-0.84667 5.7855601,-2.15194 0.88194,-0.84667 1.09361,-1.37584 1.09361,-2.57528 0,-1.97556 -0.24694,-2.54 -1.44639,-3.13972 -1.19944,-0.635 -1.51694,-0.635 -3.2455501,-0.0353 z m 3.1397201,2.01083 c 0.59972,0.635 0.59972,0.81139 0.14111,1.65806 -0.52917,0.9525 -3.4925001,2.61055 -5.3622201,3.03389 -0.98778,0.21166 -0.98778,0.21166 -0.98778,-1.55223 0,-1.72861 0.0353,-1.79916 1.65805,-2.82222 1.9755601,-1.27 3.5983401,-1.37583 4.5508401,-0.3175 z"
         inkscape:connector-curvature="0"
         style="stroke-width:0.03527778" />
      <path
         id="path11436"
         d="m 25.118017,213.1497 c -3.73944,1.83444 -5.3975,4.62139 -4.40972,7.37305 0.59972,1.69334 1.44639,2.36361 3.52778,2.8575 1.37583,0.3175 1.97555,0.3175 2.99861,-0.0353 0.67028,-0.24694 1.19944,-0.635 1.12889,-0.81138 -0.0706,-0.21167 -1.19945,-0.56445 -2.54,-0.81139 -2.68111,-0.49389 -3.175,-0.84667 -3.4925,-2.39889 -0.3175,-1.62278 0.14111,-2.08139 1.69333,-1.65806 3.52778,0.98778 7.69056,-2.82222 5.08,-4.65666 -1.05833,-0.74084 -2.29305,-0.70556 -3.98639,0.14111 z m 2.99861,1.34055 c 0,0.74084 -1.41111,1.51695 -2.54,1.41111 l -1.16416,-0.10583 1.23472,-0.81139 c 1.23472,-0.77611 2.46944,-1.02305 2.46944,-0.49389 z"
         inkscape:connector-curvature="0"
         style="stroke-width:0.03527778" />
      <path
         id="path11438"
         d="m 17.886077,213.53775 c 0,1.23472 -0.67028,2.11667 -1.34056,1.76389 -1.23472,-0.635 -1.48166,-0.10583 -1.23472,2.71639 0.21167,2.68111 0.49389,3.35139 1.37583,2.99861 0.59973,-0.21167 1.905,-3.06917 2.18723,-4.79778 0.24694,-1.30527 0.35277,-1.44639 1.94027,-1.905 2.54,-0.74083 2.2225,-1.51694 -0.635,-1.51694 -2.08139,0 -2.29305,0.0705 -2.29305,0.74083 z"
         inkscape:connector-curvature="0"
         style="stroke-width:0.03527778" />
      <path
         id="path11440"
         d="m -146.33198,215.6897 c -2.61055,1.34055 -6.10305,4.83305 -7.23194,7.16139 -1.76389,3.81 -0.88194,8.29027 1.97555,9.98361 1.16417,0.67027 1.72862,0.77611 3.77473,0.67027 1.65805,-0.10583 2.61055,-0.35277 3.06916,-0.77611 1.12889,-1.02305 0.35278,-1.34055 -1.97555,-0.84666 -1.76389,0.35277 -2.29306,0.3175 -3.42195,-0.14111 -2.64583,-1.12889 -3.31611,-4.72723 -1.55222,-8.36084 1.02306,-2.11666 5.15056,-6.13833 7.33778,-7.12611 1.79917,-0.84667 2.29305,-1.69333 0.9525,-1.69333 -0.45861,0.0353 -1.76389,0.52916 -2.92806,1.12889 z"
         inkscape:connector-curvature="0"
         style="stroke-width:0.03527778" />
      <path
         id="path11442"
         d="m -92.498089,215.26636 c -2.434166,1.02306 -4.26861,3.42195 -4.26861,5.67973 0,1.34055 0.91722,3.35138 1.834444,3.98638 0.635,0.45862 0.670276,0.56445 0.07056,2.29306 -0.776113,2.36361 -0.423333,4.72722 0.811387,5.89139 0.49389,0.45861 1.199446,0.84667 1.5875,0.84667 1.975557,0 4.515557,-2.71639 4.515557,-4.79778 0,-0.91722 -0.3175,-1.44639 -1.5875,-2.54 -1.481667,-1.30528 -1.552224,-1.44639 -1.023057,-1.97556 0.3175,-0.3175 1.12889,-0.88194 1.869723,-1.23472 2.08139,-1.09361 4.26861,-3.175 4.26861,-4.05694 0,-1.23473 -1.199443,-2.50473 -3.069166,-3.31612 -2.187221,-0.91722 -3.95111,-1.19944 -5.009444,-0.77611 z m 2.963334,2.11667 c 0.423333,0.49389 0.881943,0.635 1.481666,0.49389 0.45861,-0.14111 1.058334,-0.0353 1.340557,0.21167 1.023053,0.84666 0.564443,1.62277 -1.834447,3.03388 -1.305276,0.74084 -2.82222,1.76389 -3.351387,2.2225 -1.199446,0.98778 -1.869723,0.81139 -2.610556,-0.81138 -0.77611,-1.5875 -0.45861,-2.71639 1.27,-4.445 1.5875,-1.5875 2.71639,-1.79917 3.704167,-0.70556 z m -1.5875,10.05417 c 1.516943,0.9525 1.693333,1.44639 0.881943,2.96333 -0.529167,1.05833 -2.328333,2.04611 -2.963333,1.62278 -0.811387,-0.45861 -0.246944,-5.46806 0.599723,-5.46806 0.03528,0 0.705556,0.38806 1.481667,0.88195 z"
         inkscape:connector-curvature="0"
         style="stroke-width:0.03527778" />
      <path
         id="path11444"
         d="m -68.932532,217.45359 c -1.340557,1.905 -1.834447,3.03388 -3.139723,7.54944 -1.12889,3.81 -1.340557,6.06778 -0.635,6.77333 0.705556,0.70556 0.881943,0.49389 1.128889,-1.41111 0.141111,-1.02305 0.705554,-3.56305 1.305277,-5.64444 0.564444,-2.11667 1.023057,-3.91584 1.023057,-3.98639 0,-0.10583 0.176387,-0.17639 0.352777,-0.17639 0.211666,0 0.352776,1.09361 0.352776,2.54 0.03528,6.13833 1.481667,7.62 3.52778,3.59833 l 0.846667,-1.72861 0.211666,1.94028 c 0.211667,2.11667 0.493887,2.82222 1.199444,2.82222 0.317499,0 0.529169,-0.9525 0.670279,-3.45722 0.10583,-1.86972 0.56444,-4.79778 0.98777,-6.49111 0.635,-2.32833 0.74084,-3.175 0.42334,-3.4925 -0.635,-0.635 -1.16417,-0.0353 -2.398889,2.64583 -3.704167,8.04334 -3.421944,7.51417 -3.704167,6.52639 -0.14111,-0.49389 -0.105833,-2.61055 0.07056,-4.72722 0.176387,-2.08139 0.246943,-4.02167 0.14111,-4.30389 -0.352777,-0.88194 -1.27,-0.45861 -2.36361,1.02306 z"
         inkscape:connector-curvature="0"
         style="stroke-width:0.03527778" />
      <path
         id="path11446"
         d="m -139.6292,217.45359 c -1.12889,1.62277 -2.71639,7.40833 -2.89278,10.58333 -0.21166,3.4925 0.21167,4.58611 1.86973,5.00944 1.02305,0.28223 2.15194,-0.42333 1.23472,-0.77611 -0.24695,-0.0705 -0.77611,-0.45861 -1.16417,-0.84666 -0.59972,-0.59973 -0.67028,-0.98778 -0.45861,-2.8575 0.3175,-2.54 1.27,-5.92667 2.54,-8.78417 0.91722,-2.04611 0.88194,-3.10445 -0.0353,-3.10445 -0.28222,0 -0.77611,0.35278 -1.09361,0.77612 z"
         inkscape:connector-curvature="0"
         style="stroke-width:0.03527778" />
      <path
         id="path11448"
         d="m -57.820033,218.33553 c -0.10584,0.35278 -0.67028,1.905 -1.27,3.42194 -1.19945,3.175 -1.72861,7.69056 -0.98778,8.14917 0.59972,0.35278 1.05833,-0.45861 1.05833,-1.94028 0,-1.51694 0.28223,-1.97555 1.41111,-2.18722 0.49389,-0.10583 1.09362,-0.24694 1.37584,-0.3175 0.35278,-0.10583 0.59972,0.3175 0.81139,1.41111 0.49389,2.75167 1.69333,2.89278 1.69333,0.21167 0,-0.81139 0.3175,-2.50472 0.67028,-3.73945 0.84666,-2.82222 0.98778,-3.56305 0.635,-4.1275 -0.59972,-0.91722 -1.23472,-0.35277 -1.79917,1.62278 -0.52917,1.94028 -0.67028,2.11667 -1.97555,2.54 -0.77612,0.24695 -1.48167,0.38806 -1.55223,0.3175 -0.10583,-0.10583 0.14111,-0.88194 0.52917,-1.72861 0.9525,-2.11667 1.05833,-3.98639 0.21167,-4.16278 -0.35278,-0.0705 -0.67028,0.14111 -0.81139,0.52917 z"
         inkscape:connector-curvature="0"
         style="stroke-width:0.03527778" />
      <path
         id="path11450"
         d="m -83.502255,220.1347 c -1.940277,3.21027 -2.71639,5.18583 -2.751667,7.12611 -0.14111,5.18583 4.30389,7.37305 7.9375,3.95111 3.104443,-2.92806 3.210277,-8.11389 0.282223,-11.39472 -0.98778,-1.09361 -1.5875,-1.48167 -2.71639,-1.62278 l -1.44639,-0.17639 z m 5.08,1.19944 c 1.5875,2.61056 1.164166,6.56167 -0.917224,8.39611 -2.18722,1.905 -3.880553,1.905 -4.833053,-0.0353 -0.529167,-1.09361 -0.564447,-1.55222 -0.246947,-2.99861 0.564447,-2.57527 2.469447,-5.89139 3.52778,-6.17361 1.516944,-0.42333 1.763887,-0.35278 2.469444,0.81139 z"
         inkscape:connector-curvature="0"
         style="stroke-width:0.03527778" />
      <path
         id="path11452"
         d="m -118.92114,219.39386 c -0.88195,2.25778 -1.55223,5.78556 -1.72862,9.27806 -0.17638,3.24555 -0.10583,3.88055 0.42334,4.72722 0.42333,0.635 0.88194,0.91722 1.37583,0.84667 0.91722,-0.14111 1.19945,-1.34056 0.42333,-1.76389 -0.59972,-0.3175 -0.84666,-3.10445 -0.28222,-3.10445 0.14111,0 0.88195,0.635 1.65806,1.41112 0.74083,0.74083 1.86972,1.62277 2.50472,1.94027 1.12889,0.52917 3.4925,0.70556 4.51556,0.3175 0.91722,-0.35277 0.21166,-1.12889 -1.30528,-1.37583 -2.04611,-0.35278 -3.21028,-1.02306 -4.37445,-2.50472 l -0.9525,-1.30528 2.18723,-2.04611 c 1.19944,-1.12889 2.18722,-2.29306 2.18722,-2.61056 0,-1.12889 -1.48167,-0.42333 -3.73945,1.76389 -1.27,1.27 -2.46944,2.2225 -2.61055,2.11667 -0.3175,-0.21167 0.0353,-2.25778 0.98778,-5.715 0.38805,-1.37583 0.635,-2.61056 0.49388,-2.71639 -0.49388,-0.52917 -1.44638,-0.10583 -1.76388,0.74083 z"
         inkscape:connector-curvature="0"
         style="stroke-width:0.03527778" />
      <path
         id="path11454"
         d="m 119.4508,219.21747 c 0,0.24695 0,1.19945 0.0353,2.08139 0.0353,0.91723 -0.0706,1.72861 -0.24693,1.83445 -0.74084,0.45861 -13.0528,0.98778 -30.268343,1.34055 -19.79083,0.35278 -24.94139,0.74084 -25.15306,1.79917 -0.14111,0.77611 1.02306,0.81139 4.97417,0.28222 1.44639,-0.21166 12.91167,-0.59972 25.50583,-0.88194 12.594173,-0.28222 23.318603,-0.59972 23.883063,-0.74084 0.88194,-0.21166 0.9525,-0.14111 0.9525,0.88195 0,0.635 -0.24696,1.48167 -0.52916,1.94028 -0.4939,0.74083 -0.45863,0.84666 0.3175,1.5875 0.9525,0.88194 1.62277,0.74083 1.62277,-0.35278 0,-0.49389 0.4586,-0.88195 1.55223,-1.37583 2.01083,-0.84667 4.445,-3.24556 4.445,-4.33917 0,-1.09361 -0.6703,-1.65806 -3.95113,-3.21028 -3.03387,-1.41111 -3.10444,-1.44639 -3.13971,-0.84667 z"
         inkscape:connector-curvature="0"
         style="stroke-width:0.03527778" />
      <path
         id="path11456"
         d="m -127.17614,226.37886 c -0.70556,0.49389 -1.44639,1.12889 -1.62278,1.44639 -0.28222,0.49389 -0.45861,0.49389 -1.16417,0.14111 -0.45861,-0.24694 -1.27,-0.84666 -1.79917,-1.30527 -1.23472,-1.19945 -2.39888,-0.88195 -4.40972,1.09361 -1.19944,1.23472 -1.51694,1.79916 -1.51694,2.75166 0,1.62278 0.88194,2.39889 2.78694,2.39889 1.55223,0 3.24556,-0.67028 4.48028,-1.83444 0.74083,-0.67028 0.74083,-0.67028 2.01083,0.59972 1.09361,1.09361 1.41111,1.23472 3.13973,1.23472 1.83444,0 3.56305,-0.70555 3.03388,-1.23472 -0.14111,-0.14111 -1.02305,-0.24694 -1.94027,-0.24694 -1.86973,0.0353 -3.28084,-0.67028 -3.28084,-1.62278 0,-1.05834 1.02306,-2.15195 2.46945,-2.57528 0.98778,-0.3175 1.41111,-0.635 1.41111,-1.09361 0,-0.9525 -2.01083,-0.84667 -3.59833,0.24694 z m -5.36223,2.36361 c 1.09361,1.02306 1.05834,1.19945 -0.21166,1.86973 -2.46945,1.27 -3.70417,0.17639 -1.94028,-1.72861 1.02306,-1.12889 1.09361,-1.12889 2.15194,-0.14112 z"
         inkscape:connector-curvature="0"
         style="stroke-width:0.03527778" />
      <path
         id="path11458"
         d="m -52.281423,226.87275 c -0.59972,0.38806 -0.24695,1.44639 0.49389,1.44639 0.81139,0 0.635,0.52917 -0.52917,1.69333 -1.27,1.27 -1.44639,2.99862 -0.38805,3.59834 0.84666,0.42333 3.21027,0.45861 3.88055,0.0353 0.9525,-0.59973 0.14111,-1.44639 -1.37583,-1.44639 -0.77611,0 -1.41111,-0.14111 -1.41111,-0.3175 0,-0.21167 0.635,-0.88195 1.44639,-1.51695 3.52777,-2.8575 3.31611,-2.61055 2.82222,-3.24555 -0.52917,-0.635 -4.05695,-0.81139 -4.93889,-0.24695 z"
         inkscape:connector-curvature="0"
         style="stroke-width:0.03527778" />
      <path
         id="path11460"
         d="m 435.82191,230.43581 c -0.70557,0.74083 -1.69334,2.18722 -2.18723,3.175 -0.4939,0.9525 -1.02307,1.76389 -1.16417,1.76389 -0.1764,0 -0.59973,0.21166 -0.9525,0.49389 -0.67027,0.49388 -0.67027,0.52916 -0.0706,1.16416 0.52917,0.59972 0.56447,0.91722 0.21167,2.68111 -0.35277,1.72861 -0.3175,2.11667 0.24696,3.10445 0.81137,1.37583 2.15194,1.83444 4.48027,1.55222 1.905,-0.24694 4.1275,-1.41111 4.1275,-2.18722 0,-0.42334 -0.24693,-0.49389 -1.30527,-0.24695 -0.74083,0.17639 -2.2225,0.28223 -3.28083,0.3175 -1.7639,0 -1.9403,-0.0705 -2.2578,-0.9525 -0.21166,-0.59972 -0.21166,-1.44639 0,-2.29305 l 0.3175,-1.34056 2.46947,-0.21166 c 2.96333,-0.24695 4.05693,-0.56445 4.05693,-1.19945 0,-0.56444 -1.1289,-0.88194 -3.42193,-0.88194 -1.5875,0 -1.86973,-0.10584 -1.86973,-0.635 0,-0.74084 1.905,-3.52778 2.89276,-4.23334 0.91724,-0.67027 0.8114,-1.48166 -0.21166,-1.48166 -0.52917,0 -1.30527,0.52916 -2.08137,1.41111 z"
         inkscape:connector-curvature="0"
         style="stroke-width:0.03527778" />
      <path
         id="path11462"
         d="m 33.231907,230.18886 c -0.28222,0.45861 -1.02305,2.18723 -1.62278,3.81 -0.81139,2.2225 -1.05833,3.35139 -0.91722,4.51556 0.21167,2.01083 1.23472,3.35139 2.64583,3.4925 1.27,0.14111 1.48167,-0.42333 0.42334,-0.98778 -0.35278,-0.21167 -0.88195,-0.98778 -1.09361,-1.72861 -0.35278,-1.16417 -0.3175,-1.79917 0.21166,-3.81 0.35278,-1.30528 0.91723,-3.03389 1.30528,-3.77472 0.35278,-0.77611 0.635,-1.62278 0.635,-1.86972 0,-0.74084 -0.98778,-0.52917 -1.5875,0.35277 z"
         inkscape:connector-curvature="0"
         style="stroke-width:0.03527778" />
      <path
         id="path11464"
         d="m 383.54024,232.69359 c -0.28223,0.635 -0.67027,2.25777 -0.88194,3.59833 -0.21166,1.30528 -0.52916,2.57528 -0.67029,2.78694 -0.17637,0.17639 -0.3175,1.72861 -0.35277,3.38667 -0.0353,2.57528 0.0706,3.175 0.67027,3.95111 0.42333,0.52917 1.09363,0.9525 1.51696,0.9525 0.9525,0 3.03387,-1.23472 3.3161,-1.94028 0.3175,-0.88194 -0.21166,-1.05833 -1.27,-0.42333 -0.56443,0.3175 -1.27,0.59972 -1.5875,0.59972 -0.74083,0 -1.05833,-1.51694 -0.70556,-3.24555 0.28223,-1.34056 0.42333,-1.44639 2.25779,-2.04611 2.78694,-0.88195 3.88054,-1.44639 3.88054,-2.04612 0,-0.52916 -0.42333,-0.52916 -3.9511,0.14112 -1.16417,0.21166 -1.34056,0.14111 -1.34056,-0.42334 0,-0.81139 0.52916,-4.16278 0.88196,-5.53861 0.21166,-0.81139 0.1411,-0.9525 -0.4939,-0.9525 -0.52917,0 -0.91723,0.35278 -1.27,1.19945 z"
         inkscape:connector-curvature="0"
         style="stroke-width:0.03527778" />
      <path
         id="path11466"
         d="m 8.3610769,233.11692 c -2.61056,1.19944 -3.52778,2.11667 -3.52778,3.52778 0,1.48166 0.77611,2.01083 4.51556,2.96333 0.8819401,0.21167 1.4816601,0.59972 1.4816601,0.88194 0,0.28223 -0.8466601,0.98778 -1.8344401,1.5875 -1.72861,1.02306 -2.46945,1.12889 -4.16278,0.67028 -0.38806,-0.10583 -0.52917,0.14111 -0.52917,0.91722 0,0.98778 0.10584,1.05834 1.44639,1.16417 1.97556,0.14111 4.3038901,-0.98778 6.1383401,-2.96333 1.16416,-1.27 1.44638,-1.44639 1.62277,-0.9525 0.67028,2.29305 2.18723,3.4925 3.84528,3.06916 1.23472,-0.3175 1.09361,-0.74083 -0.35278,-1.34055 -0.67027,-0.28222 -1.34055,-0.77611 -1.44639,-1.09361 -0.56444,-1.41111 1.27,-4.05695 2.82223,-4.05695 1.05833,0 1.48166,-0.56444 0.91722,-1.23472 -1.12889,-1.37583 -4.30389,0.24695 -5.29167,2.64583 -0.52916,1.27 -0.52916,1.27 -1.65805,0.35278 -0.49389,-0.38805 -1.83445,-0.9525 -2.9633401,-1.27 -3.56305,-0.98778 -3.52777,-1.83444 0.17639,-3.84528 1.8697201,-1.02305 2.3283401,-1.65805 1.2347201,-1.86972 -0.28222,-0.0353 -1.3758301,0.3175 -2.4341601,0.84667 z"
         inkscape:connector-curvature="0"
         style="stroke-width:0.03527778" />
      <path
         id="path11468"
         d="m 367.59468,233.50497 c -0.56444,0.21167 -0.59971,1.37584 -0.10584,1.69334 0.52917,0.3175 1.41113,-0.49389 1.41113,-1.27 0,-0.67028 -0.42333,-0.81139 -1.30529,-0.42334 z"
         inkscape:connector-curvature="0"
         style="stroke-width:0.03527778" />
      <path
         id="path11470"
         d="m -24.729483,234.03414 c -0.98778,0.98778 0,1.94028 3.63361,3.59833 l 2.11667,0.98778 -1.34056,1.16417 c -0.74083,0.635 -2.43416,1.5875 -3.70416,2.11667 -2.89278,1.12888 -3.95111,1.79916 -3.95111,2.43416 0,0.635 1.02305,1.02306 1.55222,0.59972 0.21167,-0.14111 1.02305,-0.49388 1.79917,-0.74083 2.2225,-0.70555 4.93888,-2.36361 6.31472,-3.88055 0.70555,-0.77612 1.27,-1.5875 1.27,-1.79917 0,-0.98778 -0.9525,-1.83445 -3.31611,-2.92806 -1.41111,-0.635 -2.68111,-1.34055 -2.82223,-1.5875 -0.3175,-0.49389 -1.02305,-0.49389 -1.55222,0.0353 z"
         inkscape:connector-curvature="0"
         style="stroke-width:0.03527778" />
      <path
         id="path11472"
         d="m 38.241357,235.72747 c -0.91723,0.56445 -1.97556,1.55223 -2.36362,2.18723 -1.79916,2.92805 0.17639,6.63222 3.52778,6.63222 1.12889,0 3.66889,-1.09361 4.05695,-1.79917 0.52916,-0.84666 -0.45861,-1.09361 -2.25778,-0.635 -3.38667,0.84667 -5.36222,-0.77611 -2.25778,-1.86972 3.31611,-1.16417 5.53861,-3.88056 4.26861,-5.15056 -0.81139,-0.81138 -3.21028,-0.49388 -4.97416,0.635 z m 2.89277,1.27 c -0.59972,0.74084 -2.43416,1.65806 -2.71639,1.37584 -0.35277,-0.35278 1.76389,-1.94028 2.54,-1.94028 0.56445,0 0.56445,0.0706 0.17639,0.56444 z"
         inkscape:connector-curvature="0"
         style="stroke-width:0.03527778" />
      <path
         id="path11474"
         d="m 22.860237,236.71525 c -1.72861,0.88195 -1.94027,1.12889 -2.39888,2.71639 -0.67028,2.29306 -0.17639,4.26861 1.23472,4.79778 1.19944,0.49389 3.45722,0.17639 4.26861,-0.52917 0.35278,-0.3175 1.05833,-0.56444 1.5875,-0.56444 1.19944,0 3.13972,-0.98778 2.8575,-1.41111 -0.14111,-0.21167 -0.59972,-0.35278 -1.09361,-0.35278 -0.77611,0 -0.84667,-0.10583 -0.635,-0.81139 0.38805,-1.12889 0.21166,-2.43417 -0.38806,-3.03389 -0.42333,-0.42333 -0.59972,-0.42333 -1.05833,-0.0353 -0.81139,0.67028 -1.5875,2.29306 -1.5875,3.35139 0,0.67028 -0.28222,1.02306 -1.19945,1.48167 -1.5875,0.74083 -2.32833,0.42333 -2.32833,-0.9525 0,-1.62278 0.52917,-2.36361 2.43417,-3.35139 0.9525,-0.45861 1.79916,-1.09361 1.905,-1.37583 0.49389,-1.23473 -1.05834,-1.19945 -3.59834,0.0705 z"
         inkscape:connector-curvature="0"
         style="stroke-width:0.03527778" />
      <path
         id="path11476"
         d="m 425.34441,236.85636 c -0.9878,0.67028 -1.37584,1.37584 -2.36363,4.33917 -1.16417,3.4925 -1.44637,5.60917 -0.84667,5.99722 0.38807,0.21167 1.4464,-0.74083 1.4464,-1.34055 0,-0.91723 1.905,-6.80861 2.3989,-7.40834 0.2822,-0.3175 0.98777,-0.59972 1.5522,-0.59972 0.77613,0 0.9878,0.17639 0.9878,0.74083 0,1.19945 -0.6703,2.08139 -1.6228,2.08139 -1.12887,0 -1.51693,0.98778 -0.67027,1.62278 1.30527,0.9525 3.88057,-1.37583 4.3039,-3.84528 0.2822,-1.79916 -0.28223,-2.36361 -2.36363,-2.36361 -1.12887,0 -2.01083,0.24695 -2.8222,0.77611 z"
         inkscape:connector-curvature="0"
         style="stroke-width:0.03527778" />
      <path
         id="path11480"
         d="m 368.75884,238.97303 c -0.7761,2.82222 -1.02304,5.00944 -0.74083,7.16139 0.1764,1.62278 0.35279,1.94028 0.9525,1.94028 0.635,0 0.67029,-0.14111 0.45863,-2.2225 -0.14113,-1.44639 -0.0353,-3.06917 0.3175,-4.83306 0.70554,-3.28083 0.70554,-3.88055 0.0353,-3.88055 -0.3175,0 -0.70557,0.70555 -1.02307,1.83444 z"
         inkscape:connector-curvature="0"
         style="stroke-width:0.03527778" />
      <path
         id="path11482"
         d="m -31.538093,237.98525 c -0.21166,0.17639 -12.59416,0.56445 -20.955,0.59972 -4.05694,0.0353 -11.147773,0.28223 -15.698606,0.52917 -4.550833,0.24695 -12.805833,0.70556 -18.344446,1.02306 -42.474445,2.25777 -48.083605,2.64583 -60.854165,4.1275 -5.22111,0.59972 -10.795,1.12889 -12.34722,1.16416 -2.89278,0.0706 -3.21028,0.28223 -2.18722,1.55223 0.49389,0.59972 2.78694,0.45861 13.12333,-0.81139 8.81944,-1.05834 17.42722,-1.79917 26.10555,-2.32834 3.4925,-0.17639 10.4775,-0.59972 15.52223,-0.88194 5.04472,-0.28222 12.276661,-0.70556 16.051385,-0.88195 7.161389,-0.38805 8.995833,-0.49388 17.92111,-1.05833 9.948333,-0.635 20.813892,-0.84667 21.343052,-0.42333 0.28222,0.24694 0.56445,0.35278 0.635,0.24694 0.10584,-0.0705 4.37445,-0.3175 9.525,-0.52916 17.28611,-0.70556 18.27389,-0.77612 18.69722,-1.27 0.77611,-0.9525 -0.0705,-1.19945 -4.23333,-1.19945 -2.29305,0 -4.23333,0.0706 -4.30389,0.14111 z"
         inkscape:connector-curvature="0"
         style="stroke-width:0.03527778" />
      <path
         id="path11484"
         d="m 401.46134,238.26747 c -0.38804,0.52917 -2.2225,5.64445 -2.2225,6.24417 0,0.52917 1.23473,0.49389 1.69334,-0.0705 0.21166,-0.24695 0.67029,-1.23473 1.05833,-2.18723 0.56446,-1.41111 0.88196,-1.79916 1.69333,-1.97555 1.37584,-0.28222 3.31613,-1.30528 3.31613,-1.76389 0,-0.21167 -0.84667,-0.3175 -2.01083,-0.24695 -1.1289,0.0353 -2.29307,-0.0353 -2.61057,-0.17638 -0.3175,-0.17639 -0.70556,-0.10584 -0.91723,0.17638 z"
         inkscape:connector-curvature="0"
         style="stroke-width:0.03527778" />
      <path
         id="path11486"
         d="m 407.59968,239.21997 c -1.44638,1.62278 -2.18721,3.88056 -1.72861,5.25639 0.14111,0.49389 0.45861,0.9525 0.70557,1.05834 0.81137,0.24694 2.11666,-1.5875 2.57527,-3.59834 0.35277,-1.69333 0.56443,-2.01083 1.34056,-2.18722 0.49387,-0.10583 1.51694,-0.35278 2.2225,-0.56444 2.0461,-0.59973 1.12887,-1.34056 -1.65806,-1.34056 -2.11667,0 -2.25777,0.0706 -3.45723,1.37583 z"
         inkscape:connector-curvature="0"
         style="stroke-width:0.03527778" />
      <path
         id="path11488"
         d="m 392.64191,238.90247 c -3.4925,1.79917 -4.72723,4.79778 -2.7164,6.59695 0.635,0.56444 1.34056,0.81139 2.3989,0.81139 1.905,0 3.73943,-0.635 3.73943,-1.27 0,-0.42334 -0.35277,-0.45861 -1.65804,-0.3175 -1.83446,0.21166 -3.38666,-0.3175 -3.56306,-1.30528 -0.0706,-0.42333 0.3175,-0.59972 1.83444,-0.77611 2.11666,-0.28222 4.72723,-1.44639 5.29166,-2.39889 1.02307,-1.69333 -2.78693,-2.61056 -5.32693,-1.34056 z m 2.64583,1.12889 c -0.1764,0.45861 -2.0814,1.09361 -2.3636,0.77611 -0.3175,-0.3175 1.05833,-1.19944 1.83443,-1.19944 0.35277,0 0.59973,0.17639 0.52917,0.42333 z"
         inkscape:connector-curvature="0"
         style="stroke-width:0.03527778" />
      <path
         id="path11490"
         d="m 414.44357,238.65553 c -0.77613,0.9525 -1.44639,3.10444 -1.44639,4.62139 0,1.23472 0.17639,1.69333 0.7761,2.11667 1.05833,0.77611 2.57529,0.70555 4.37446,-0.14112 1.79917,-0.88194 2.54,-1.69333 3.1397,-3.42194 0.56447,-1.65806 0,-3.45722 -1.0936,-3.45722 -0.56443,0 -0.67027,0.21166 -0.56443,1.48166 0.0705,0.81139 -0.0706,1.79917 -0.28223,2.2225 -0.52917,1.02306 -2.43417,2.11667 -3.59834,2.11667 -0.8114,0 -0.98777,-0.14111 -0.98777,-0.88194 0,-0.49389 0.3175,-1.69334 0.70554,-2.71639 0.38807,-1.02306 0.70557,-1.97556 0.70557,-2.15195 0,-0.42333 -1.30527,-0.28222 -1.72861,0.21167 z"
         inkscape:connector-curvature="0"
         style="stroke-width:0.03527778" />
      <path
         id="path11492"
         d="m 375.60274,240.38414 -1.05833,1.44639 v -1.30528 c 0,-1.16416 -0.10584,-1.30528 -0.77611,-1.19944 -0.70556,0.10583 -0.84666,0.49389 -1.41112,3.45722 -0.74084,4.16278 -0.77611,4.55083 -0.10584,4.79778 0.70557,0.28222 1.34057,-0.42334 2.64584,-2.89278 1.48166,-2.75167 1.62279,-2.8575 1.905,-1.44639 0.24696,1.23472 0.70556,1.69333 1.51696,1.41111 0.2822,-0.10583 0.35277,-0.84666 0.24693,-2.50472 -0.24693,-3.63361 -1.19943,-4.19806 -2.96333,-1.76389 z"
         inkscape:connector-curvature="0"
         style="stroke-width:0.03527778" />
      <path
         id="path11494"
         d="m 455.75384,248.28636 c -0.4939,0.35278 -0.7761,0.88195 -0.7761,1.5875 0,0.56445 -0.21167,1.09361 -0.42333,1.16417 -1.05834,0.3175 -14.67557,0.98778 -29.21,1.44639 -21.59,0.70555 -36.33611,1.65805 -77.08194,4.93889 -19.40279,1.5875 -19.93196,1.62278 -20.1789,2.01083 -0.10583,0.21167 0.0353,0.59972 0.35277,0.88195 0.45863,0.45861 1.02307,0.49388 4.1628,0.14111 3.88054,-0.42334 25.8586,-2.32834 31.18554,-2.68111 1.76389,-0.10584 5.15056,-0.35278 7.58473,-0.52917 28.36333,-2.15195 36.93583,-2.64583 56.44443,-3.175 6.87917,-0.21167 15.62807,-0.59972 19.40277,-0.88195 6.35,-0.45861 6.91446,-0.45861 7.3378,0.0706 0.52916,0.74083 0.56443,2.29306 0.0353,2.82222 -0.56444,0.56445 -0.0706,1.16417 0.88193,1.16417 0.84667,0 8.14917,-2.92806 8.9253,-3.59833 1.34053,-1.09362 -0.0706,-2.57528 -4.4803,-4.65667 -2.9986,-1.44639 -3.10443,-1.48167 -4.16277,-0.70556 z"
         inkscape:connector-curvature="0"
         style="stroke-width:0.03527778" />
      <path
         id="path11506"
         d="m 324.52051,310.86914 c 0,0.4939 0.0706,0.67027 0.1764,0.42333 0.0706,-0.21166 0.0706,-0.635 0,-0.88193 -0.10584,-0.21167 -0.1764,-0.0353 -0.1764,0.4586 z"
         inkscape:connector-curvature="0"
         style="stroke-width:0.03527778" />
    </g>
  </g>
</svg>
